<?xml version="1.0" encoding="iso-8859-1"?>
<!-- Generator: Adobe Illustrator 19.0.0, SVG Export Plug-In . SVG Version: 6.00 Build 0)  -->
<svg version="1.1" id="Capa_1" xmlns="http://www.w3.org/2000/svg" xmlns:xlink="http://www.w3.org/1999/xlink" x="0px" y="0px"
	 viewBox="0 0 511.999 511.999" style="enable-background:new 0 0 511.999 511.999;" xml:space="preserve">
<path style="fill:#FCBF29;" d="M395.616,45.469c-88.737-40.561-192.495-40.561-281.231,0l28.689,56.043
	c69.827-35.242,154.027-35.242,223.854,0L395.616,45.469z"/>
<path style="fill:#FEA832;" d="M255.999,75.094c38.173,0.151,76.316,8.949,110.927,26.418l28.689-56.043
	c-44.061-20.14-91.826-30.275-139.616-30.414L255.999,75.094L255.999,75.094z"/>
<path style="fill:#1DE8F1;" d="M366.915,116.513c-2.273,0-4.578-0.519-6.746-1.612c-65.853-33.237-144.485-33.237-210.339,0
	c-7.395,3.732-16.414,0.764-20.146-6.631c-3.732-7.395-0.763-16.414,6.631-20.146c74.317-37.508,163.052-37.507,237.368,0
	c7.395,3.732,10.363,12.751,6.631,20.146C377.677,113.496,372.395,116.512,366.915,116.513z"/>
<path style="fill:#1BD9DE;" d="M255.999,89.987c35.788,0.152,71.547,8.448,104.169,24.913c2.168,1.094,4.473,1.612,6.746,1.612
	c5.48,0,10.762-3.016,13.399-8.243c3.732-7.395,0.764-16.414-6.631-20.146c-36.855-18.6-77.254-27.964-117.684-28.116
	L255.999,89.987L255.999,89.987z"/>
<path style="fill:#FD4E26;" d="M114.394,60.469c-5.689,0-11.129-3.253-13.649-8.766c-3.443-7.533-0.128-16.431,7.406-19.874
	C153.632,11.04,204.412,0.051,255,0.051s101.37,10.989,146.85,31.778c7.533,3.443,10.849,12.342,7.406,19.874
	c-3.444,7.532-12.345,10.846-19.874,7.406c-85.403-39.036-183.362-39.036-268.763,0C118.598,60.032,116.479,60.469,114.394,60.469z"
	/>
<path style="fill:#E61E14;" d="M255.999,29.838c45.507,0.141,90.992,9.894,133.382,29.27c7.529,3.44,16.43,0.127,19.874-7.406
	c3.442-7.533,0.128-16.431-7.406-19.874C356.668,11.177,306.257,0.201,255.999,0.058L255.999,29.838L255.999,29.838z"/>
<polygon style="fill:#FEDB41;" points="390.972,210.009 390.972,271.996 367.278,301.99 150.021,301.99 120.027,271.996 
	120.027,210.009 "/>
<polygon style="fill:#FCBF29;" points="367.278,301.99 255.999,301.99 255.999,210.009 390.972,210.009 390.972,271.996 "/>
<rect x="120.026" y="271.995" style="fill:#E5E5E5;" width="270.945" height="89.982"/>
<rect x="255.998" y="271.995" style="fill:#B8C7D5;" width="134.973" height="89.982"/>
<path style="fill:#FD4E26;" d="M465.957,120.027h-89.982c-8.399,0-14.997,6.598-14.997,14.997v211.957
	c0,8.397,6.598,14.997,14.997,14.997h89.982c8.399,0,14.997-6.6,14.997-14.997V135.024
	C480.954,126.625,474.356,120.027,465.957,120.027z"/>
<path style="fill:#E61E14;" d="M480.954,135.024v211.957c0,8.397-6.598,14.997-14.997,14.997h-44.991V120.027h44.991
	C474.356,120.027,480.954,126.625,480.954,135.024z"/>
<path style="fill:#FEDB41;" d="M509.548,126.926L433.563,6.95c-2.698-4.5-7.798-6.598-12.596-6.598
	c-4.798,0-9.899,2.098-12.596,6.598l-74.985,119.976c-3,4.8-3.3,10.497-0.601,15.297c2.7,4.798,7.798,7.798,13.197,7.798h150.97
	c5.399,0,10.497-3,13.197-7.798C512.849,137.423,512.549,131.726,509.548,126.926z"/>
<path style="fill:#FEA832;" d="M510.148,142.223c-2.7,4.798-7.798,7.798-13.197,7.798h-75.985V0.352
	c4.798,0,9.899,2.098,12.596,6.598l75.985,119.976C512.549,131.726,512.849,137.423,510.148,142.223z"/>
<path style="fill:#FD4E26;" d="M135.024,120.027H45.042c-8.399,0-14.997,6.598-14.997,14.997v211.957
	c0,8.397,6.598,14.997,14.997,14.997h89.982c8.399,0,14.997-6.6,14.997-14.997V135.024
	C150.021,126.625,143.423,120.027,135.024,120.027z"/>
<path style="fill:#E61E14;" d="M150.021,135.024v211.957c0,8.397-6.598,14.997-14.997,14.997H90.033V120.027h44.991
	C143.423,120.027,150.021,126.625,150.021,135.024z"/>
<path style="fill:#1DE8F1;" d="M435.963,331.984H330.984l-14.997,29.994l-14.997-29.994h-90.982l-14.997,29.994l-14.997-29.994
	H75.036c-41.392,0-74.985,33.593-74.985,74.985s33.593,74.985,74.985,74.985h360.927c41.392,0,74.985-33.593,74.985-74.985
	S477.355,331.984,435.963,331.984z"/>
<path style="fill:#15B7BE;" d="M510.948,406.969c0,41.392-33.593,74.985-74.985,74.985H255.999v-149.97h44.991l14.997,29.994
	l14.997-29.994h104.979C477.355,331.984,510.948,365.578,510.948,406.969z"/>
<g>
	<path style="fill:#5C697C;" d="M330.984,376.975c0,8.397-6.598,14.997-14.997,14.997H195.011c-8.399,0-14.997-6.6-14.997-14.997
		c0-8.399,6.598-14.997,14.997-14.997h120.976C324.386,361.978,330.984,368.576,330.984,376.975z"/>
	<path style="fill:#5C697C;" d="M330.984,436.963c0,8.397-6.598,14.997-14.997,14.997H195.011c-8.399,0-14.997-6.6-14.997-14.997
		c0-8.399,6.598-14.997,14.997-14.997h120.976C324.386,421.966,330.984,428.564,330.984,436.963z"/>
</g>
<path style="fill:#FEDB41;" d="M177.615,126.926L102.63,6.95c-2.698-4.5-7.798-6.598-12.596-6.598
	c-4.798,0-9.899,2.098-12.597,6.598L2.451,126.926c-3,4.8-3.3,10.497-0.601,15.297c2.7,4.798,7.798,7.798,13.197,7.798h149.97
	c5.399,0,10.497-3,13.197-7.798C180.915,137.423,180.615,131.726,177.615,126.926z"/>
<path style="fill:#FEA832;" d="M178.215,142.223c-2.7,4.798-7.798,7.798-13.197,7.798H90.033V0.352
	c4.798,0,9.899,2.098,12.596,6.598l74.985,119.976C180.615,131.726,180.915,137.423,178.215,142.223z"/>
<path style="fill:#5C697C;" d="M180.014,331.984v164.967c0,8.289,6.708,14.997,14.997,14.997s14.997-6.708,14.997-14.997V331.984
	L180.014,331.984L180.014,331.984z"/>
<g>
	<path style="fill:#4B5868;" d="M300.99,331.984v164.967c0,8.289,6.708,14.997,14.997,14.997s14.997-6.708,14.997-14.997V331.984
		L300.99,331.984L300.99,331.984z"/>
	<path style="fill:#4B5868;" d="M330.984,436.963c0,8.397-6.598,14.997-14.997,14.997h-59.988v-29.994h59.988
		C324.386,421.966,330.984,428.564,330.984,436.963z"/>
	<path style="fill:#4B5868;" d="M315.987,391.972h-59.988v-29.994h59.988c8.399,0,14.997,6.598,14.997,14.997
		C330.984,385.373,324.386,391.972,315.987,391.972z"/>
</g>
<g>
</g>
<g>
</g>
<g>
</g>
<g>
</g>
<g>
</g>
<g>
</g>
<g>
</g>
<g>
</g>
<g>
</g>
<g>
</g>
<g>
</g>
<g>
</g>
<g>
</g>
<g>
</g>
<g>
</g>
</svg>
