<svg id="Capa_1" data-name="Capa 1" xmlns="http://www.w3.org/2000/svg" xmlns:xlink="http://www.w3.org/1999/xlink" viewBox="0 0 82.43 30.59"><defs><style>.cls-1{fill:#00bfd3;}.cls-2{fill:#ff9edd;}</style></defs><title>Logo_completo</title><path class="cls-1" d="M37.19,19.31c0,.11-.12.19-.35.25a4.13,4.13,0,0,1-.78.08,4.91,4.91,0,0,1-.67-.05q-.31-.06-.36-.21a6.74,6.74,0,0,1-.23-1.33,12.78,12.78,0,0,1-.08-1.64,18.1,18.1,0,0,1,.1-2.27c.1-.81.15-1.63.25-2.47s.22-1.67.35-2.5.25-1.63.39-2.37.26-1.44.39-2.06.24-1.16.34-1.6h-.13l-.77.19-.93.19c-.32.06-.65.11-1,.15s-.65.05-1,.05a5.14,5.14,0,0,1-.88-.07A3,3,0,0,1,31,3.4a1.75,1.75,0,0,1-.57-.35,1,1,0,0,1-.25-.76.3.3,0,0,1,.09-.24.27.27,0,0,1,.22-.11.33.33,0,0,1,.21.11.27.27,0,0,1,.1.17,1,1,0,0,0,.58.69,2.81,2.81,0,0,0,1.22.22,7.85,7.85,0,0,0,1.08-.08A6.8,6.8,0,0,0,35,2.85l1.39-.27,1.42-.32,1.53-.35c.52-.12,1-.22,1.55-.31s1-.16,1.48-.21a9.5,9.5,0,0,1,1.31-.09,5.63,5.63,0,0,1,1.16.11,2.39,2.39,0,0,1,.89.36,1.73,1.73,0,0,1,.59.64,2.14,2.14,0,0,1,.21,1,3.44,3.44,0,0,1,0,.45.28.28,0,0,1-.3.26h0c-.22,0-.33-.12-.33-.35v-.3a1.47,1.47,0,0,0-.18-.74,1.31,1.31,0,0,0-.51-.48,2.47,2.47,0,0,0-.74-.2A5.72,5.72,0,0,0,43.44,2a8,8,0,0,0-1.1.08,6,6,0,0,0-1.13.17c-.37.07-.73.14-1.06.22l-.88.21-.4.09c0,.16-.11.52-.22,1.08s-.24,1.23-.38,2S38,7.58,37.82,8.57s-.29,2-.43,3-.24,2-.33,3S37,16.39,37,17.15v1.23a2.91,2.91,0,0,0,.2.86Z" transform="translate(0.41 0.21)"/><path class="cls-1" d="M52.54,10.74a11.89,11.89,0,0,1-.86,1.46,8.31,8.31,0,0,1-1,1.28,5.42,5.42,0,0,1-1.18.9,2.42,2.42,0,0,1-1.23.34h-.13a8.63,8.63,0,0,1-.62,1.06,7.27,7.27,0,0,1-.74.92,3.37,3.37,0,0,1-.85.65,2,2,0,0,1-1,.25,2,2,0,0,1-1.2-.35,3,3,0,0,1-.86-.9,3.83,3.83,0,0,1-.53-1.25,5.53,5.53,0,0,1-.17-1.4,4.79,4.79,0,0,1,.17-1.36,3.15,3.15,0,0,1,.52-1.13,2.91,2.91,0,0,1-.42-.8,2.4,2.4,0,0,1-.15-.84,3.1,3.1,0,0,1,.22-1.12,3.17,3.17,0,0,1,.59-.94A3,3,0,0,1,44,6.88a2.17,2.17,0,0,1,1-.24,3.09,3.09,0,0,1,1.84.53A4,4,0,0,1,48,8.47a5.86,5.86,0,0,1,.65,1.67,8,8,0,0,1,.2,1.62,6.74,6.74,0,0,1-.08,1,6.9,6.9,0,0,1-.23,1,1.76,1.76,0,0,0,.89-.28,4.71,4.71,0,0,0,1-.77,11.18,11.18,0,0,0,.92-1.14,11.87,11.87,0,0,0,.81-1.38.1.1,0,0,1,.14,0,.57.57,0,0,1,.18.12.62.62,0,0,1,.12.19A.39.39,0,0,1,52.54,10.74ZM43.35,9.15a2.22,2.22,0,0,0,.07.57,2.63,2.63,0,0,0,.25.6,3.39,3.39,0,0,1,.8-.89,1.41,1.41,0,0,1,.88-.31.88.88,0,0,1,.42.11.35.35,0,0,1,.18.31c0,.13-.09.23-.26.3a1.8,1.8,0,0,0-.65.77A5.52,5.52,0,0,0,44.53,12a5.72,5.72,0,0,0,.65.55,8.32,8.32,0,0,0,.85.56c.3.17.59.32.88.45a3.51,3.51,0,0,0,.79.27,7,7,0,0,0,.25-1A7.3,7.3,0,0,0,48,11.65a6.09,6.09,0,0,0-.18-1.35,5.76,5.76,0,0,0-.55-1.39,4,4,0,0,0-.92-1.08,2,2,0,0,0-1.26-.44,1.51,1.51,0,0,0-.63.13,1.87,1.87,0,0,0-.57.35,1.69,1.69,0,0,0-.42.57A1.57,1.57,0,0,0,43.35,9.15Zm4,5.43a6.39,6.39,0,0,1-1.68-.66,9.51,9.51,0,0,1-1.4-.94,6,6,0,0,1-.08.65,5,5,0,0,0,0,.77,4.49,4.49,0,0,0,.06.73,2.78,2.78,0,0,0,.2.68,1.49,1.49,0,0,0,.34.49.65.65,0,0,0,.49.19,1.37,1.37,0,0,0,.65-.2,3.2,3.2,0,0,0,.61-.49,5,5,0,0,0,.5-.62,5.76,5.76,0,0,0,.33-.6Z" transform="translate(0.41 0.21)"/><path class="cls-1" d="M54.29,10.94c-.12.75-.21,1.48-.27,2.2s-.09,1.44-.11,2.17a25.92,25.92,0,0,1,1.22-2.81A13.76,13.76,0,0,1,56,10.92a2.91,2.91,0,0,1,.83-.81,1.7,1.7,0,0,1,.88-.28,1.29,1.29,0,0,1,.93.39,2.87,2.87,0,0,1,.61,1,5.77,5.77,0,0,1,.35,1.23,7.73,7.73,0,0,1,.11,1.18,10.69,10.69,0,0,1-.06,1.13c0,.37-.1.74-.16,1.12s-.11.8-.15,1.21a11.33,11.33,0,0,0-.07,1.3,2.35,2.35,0,0,0,0,.53c0,.14.07.2.13.2a1,1,0,0,0,.46-.36,9.35,9.35,0,0,0,.63-1c.23-.39.47-.85.74-1.36s.51-1,.76-1.58.49-1.06.72-1.57l.61-1.39c.18-.42.32-.75.42-1s.16-.42.17-.44a.4.4,0,0,1,.38-.22.36.36,0,0,1,.27.12.43.43,0,0,1,.1.24l-.22.58L64,12.48c-.24.55-.51,1.15-.8,1.82s-.61,1.31-.93,1.94-.64,1.22-.94,1.75a9.07,9.07,0,0,1-.82,1.23,1.58,1.58,0,0,1-.53.4,1.4,1.4,0,0,1-.53.11,1.69,1.69,0,0,1-1-.26,1.82,1.82,0,0,1-.59-.7,3.23,3.23,0,0,1-.31-1,7.46,7.46,0,0,1-.09-1.16,12.56,12.56,0,0,1,.08-1.5c0-.51.11-1,.17-1.47s.11-.73.14-1.06a8.37,8.37,0,0,0,0-.87,1.76,1.76,0,0,0-.07-.56c0-.14-.13-.2-.24-.2a1.48,1.48,0,0,0-.79.54A9,9,0,0,0,56,12.85c-.3.54-.58,1.13-.86,1.76s-.53,1.22-.75,1.75l-.45,1.06a.7.7,0,0,1-.37.33,2.06,2.06,0,0,1-.65.11,1.84,1.84,0,0,1-.77-.17.61.61,0,0,1-.38-.42V15.33c0-1,0-2,.15-3.17a26.35,26.35,0,0,1,.5-3.42,22.08,22.08,0,0,1,.92-3.27,11.26,11.26,0,0,1,1.41-2.79,7.11,7.11,0,0,1,2-1.94A4.77,4.77,0,0,1,59.2.05a3.58,3.58,0,0,1,1.21.21,3.41,3.41,0,0,1,1,.6,3,3,0,0,1,.71.91,2.81,2.81,0,0,1,.26,1.17A4.44,4.44,0,0,1,62,4.63a8.05,8.05,0,0,1-.93,1.64,9.15,9.15,0,0,1-1.37,1.48A15.17,15.17,0,0,1,58,9.05a13.84,13.84,0,0,1-1.86,1.08A13.11,13.11,0,0,1,54.29,10.94ZM59.84,1.2A3,3,0,0,0,57.77,2a6.82,6.82,0,0,0-1.55,2.06,13.89,13.89,0,0,0-1.1,2.85,28.85,28.85,0,0,0-.72,3.19A13.66,13.66,0,0,0,57,8.91a15.07,15.07,0,0,0,2.3-1.76A10.1,10.1,0,0,0,61,5.05a4.4,4.4,0,0,0,.66-2.23,1.58,1.58,0,0,0-.14-.77,1.49,1.49,0,0,0-.43-.5,1.54,1.54,0,0,0-.58-.27A2.36,2.36,0,0,0,59.84,1.2Z" transform="translate(0.41 0.21)"/><path class="cls-1" d="M69.13,9.41a.71.71,0,0,1,.46-.33,2.78,2.78,0,0,1,.7-.12,1.63,1.63,0,0,1,.69.09.41.41,0,0,1,.28.37c0,.21,0,.42-.07.63l-.17,1-.12.67c-.05.32-.11.68-.18,1.1s-.13.84-.18,1.3-.09.87-.11,1.24a4.71,4.71,0,0,0,0,.92c0,.24.11.36.23.36a1.22,1.22,0,0,0,.78-.35,5.08,5.08,0,0,0,.82-.91q.43-.62.81-1.26c.26-.47.52-.94.77-1.41s.48-.92.69-1.35.4-.78.56-1.06a.27.27,0,0,1,.16-.17.3.3,0,0,1,.23,0,.44.44,0,0,1,.2.13.35.35,0,0,1,.08.22s-.08.21-.23.56-.37.79-.64,1.3-.59,1.12-.91,1.71a18.29,18.29,0,0,1-1.11,1.65A8.34,8.34,0,0,1,71.68,17a1.89,1.89,0,0,1-1.16.51,1.69,1.69,0,0,1-1.29-.42,3.1,3.1,0,0,1-.7-1.15,4.93,4.93,0,0,1-.25-1.42,9.26,9.26,0,0,1,0-1.29c-.27.57-.53,1.09-.79,1.56s-.5.87-.73,1.21a4.1,4.1,0,0,1-.71.79,1.14,1.14,0,0,1-.7.28,1.43,1.43,0,0,1-1.09-.4,2.29,2.29,0,0,1-.56-1,5.27,5.27,0,0,1-.15-1.53,14.66,14.66,0,0,1,.09-1.62c0-.55.11-1.07.19-1.58S64,9.92,64,9.57a1.08,1.08,0,0,1,.47-.31,2.23,2.23,0,0,1,.63-.15,1.13,1.13,0,0,1,.57.12.51.51,0,0,1,.24.48,2.38,2.38,0,0,0-.06.37c0,.29-.1.67-.16,1.14s-.11,1-.17,1.57-.1,1.1-.13,1.58a8.42,8.42,0,0,0,0,1.23c0,.34.07.5.15.5a.8.8,0,0,0,.44-.34,7.94,7.94,0,0,0,.6-.91c.22-.38.44-.81.68-1.3s.47-1,.7-1.47.45-1,.66-1.46Z" transform="translate(0.41 0.21)"/><path class="cls-1" d="M75.3,9.39A.7.7,0,0,1,75.76,9a2.54,2.54,0,0,1,.73-.12,1.53,1.53,0,0,1,.67.12.42.42,0,0,1,.3.38,4.2,4.2,0,0,1-.07.62l-.18,1a2.38,2.38,0,0,1-.12.57c-.06.26-.11.57-.17.91s-.12.69-.17,1.07a9.47,9.47,0,0,0-.09,1.06,3.93,3.93,0,0,0,0,.84.56.56,0,0,0,.26.45c.14.06.31,0,.54-.22a6.63,6.63,0,0,0,.74-.85,14.59,14.59,0,0,0,.85-1.21L80,12.3l.72-1.14a5.53,5.53,0,0,1,.48-.71,1.16,1.16,0,0,1,.2-.24.39.39,0,0,1,.27-.11.32.32,0,0,1,.28.13.45.45,0,0,1,.09.25,3.21,3.21,0,0,1-.26.67c-.17.37-.39.81-.67,1.33a17.25,17.25,0,0,1-1,1.64A17.69,17.69,0,0,1,79,15.73,8,8,0,0,1,77.81,17a1.74,1.74,0,0,1-1.07.49,2,2,0,0,1-1.08-.29,2.16,2.16,0,0,1-.69-.78,3.67,3.67,0,0,1-.36-1.12,6.58,6.58,0,0,1-.11-1.33,9.89,9.89,0,0,1,.08-1.33c0-.46.12-.89.2-1.29s.17-.77.26-1.1A8.45,8.45,0,0,1,75.3,9.39ZM77,6.15a1.38,1.38,0,0,1,1,.36,1.17,1.17,0,0,1,.39.84,1.11,1.11,0,0,1-.39.83,1.43,1.43,0,0,1-1,.35,1.52,1.52,0,0,1-1-.34,1.09,1.09,0,0,1-.4-.84A1.11,1.11,0,0,1,76,6.5,1.51,1.51,0,0,1,77,6.15Zm.31-.73a11.72,11.72,0,0,1,.8-1.48,5.16,5.16,0,0,1,.64-.89,1.45,1.45,0,0,1,.54-.37,1.07,1.07,0,0,1,.43-.09.83.83,0,0,1,.43.13.38.38,0,0,1,.21.31,1.34,1.34,0,0,1-.07.18,8.75,8.75,0,0,0-1.19,1c-.39.38-.76.76-1.11,1.12l-.31.25a.61.61,0,0,1-.29.14c-.11,0-.16-.06-.16-.17a.4.4,0,0,1,.07-.18Z" transform="translate(0.41 0.21)"/><path class="cls-2" d="M40.9,26.41h0a.61.61,0,0,1-.18.46.76.76,0,0,1-.52.17.7.7,0,0,1-.53-.21.77.77,0,0,1-.21-.56v-.36a.78.78,0,0,1,.2-.56.67.67,0,0,1,.52-.21.73.73,0,0,1,.53.16.59.59,0,0,1,.19.47h-.37a.35.35,0,0,0-.08-.26.38.38,0,0,0-.27-.09.29.29,0,0,0-.25.14.52.52,0,0,0-.1.34v.37a.55.55,0,0,0,.1.35.32.32,0,0,0,.27.14.34.34,0,0,0,.25-.09.38.38,0,0,0,.08-.27Z" transform="translate(0.41 0.21)"/><path class="cls-2" d="M42.23,26.21h-.69v.53h.82v.31H41.17V25.17h1.18v.29h-.81v.47h.69Z" transform="translate(0.41 0.21)"/><path class="cls-2" d="M44.11,27.05h-.37L43,25.78h0v1.27h-.37V25.17H43l.74,1.25h0V25.17h.37Z" transform="translate(0.41 0.21)"/><path class="cls-2" d="M45.7,25.46h-.52v1.59H44.8V25.46h-.52v-.29H45.7Z" transform="translate(0.41 0.21)"/><path class="cls-2" d="M46.28,26.28v.77h-.37V25.17h.64a.73.73,0,0,1,.49.15.49.49,0,0,1,.18.4.44.44,0,0,1-.08.25.57.57,0,0,1-.22.16.49.49,0,0,1,.24.16.53.53,0,0,1,.07.28v.14a.43.43,0,0,0,0,.16.33.33,0,0,0,.07.13H47a.16.16,0,0,1-.06-.13.54.54,0,0,1,0-.18v-.13a.29.29,0,0,0-.07-.22.35.35,0,0,0-.22-.08Zm0-.28h.26a.33.33,0,0,0,.23-.07.27.27,0,0,0,.08-.19.32.32,0,0,0-.08-.21.29.29,0,0,0-.22-.07h-.27Z" transform="translate(0.41 0.21)"/><path class="cls-2" d="M49.06,26.27a.74.74,0,0,1-.22.56.7.7,0,0,1-.55.22.72.72,0,0,1-.56-.22.77.77,0,0,1-.21-.56v-.34a.77.77,0,0,1,.21-.56.7.7,0,0,1,.55-.22.75.75,0,0,1,.78.78Zm-.37-.34a.61.61,0,0,0-.11-.35.33.33,0,0,0-.3-.14.32.32,0,0,0-.29.14.55.55,0,0,0-.1.35v.34a.55.55,0,0,0,.1.35.33.33,0,0,0,.3.14.34.34,0,0,0,.29-.14.61.61,0,0,0,.11-.35Z" transform="translate(0.41 0.21)"/><path class="cls-2" d="M50,27.05V25.17h.64a.75.75,0,0,1,.78.78v.3a.74.74,0,0,1-.22.56.77.77,0,0,1-.56.21Zm.37-1.56v1.28h.27a.37.37,0,0,0,.3-.14.61.61,0,0,0,.11-.35V26a.6.6,0,0,0-.11-.34.37.37,0,0,0-.3-.14Z" transform="translate(0.41 0.21)"/><path class="cls-2" d="M52.78,26.21h-.69v.53h.82v.31H51.72V25.17H52.9v.29h-.81v.47h.69Z" transform="translate(0.41 0.21)"/><path class="cls-2" d="M54.87,26.21h-.69v.53H55v.31H53.81V25.17H55v.29h-.8v.47h.69Z" transform="translate(0.41 0.21)"/><path class="cls-2" d="M56.22,26.54a.22.22,0,0,0-.07-.17,1.23,1.23,0,0,0-.26-.12A1.47,1.47,0,0,1,55.4,26a.42.42,0,0,1-.16-.36.46.46,0,0,1,.18-.37.9.9,0,0,1,.48-.14.73.73,0,0,1,.49.15.49.49,0,0,1,.18.41h-.36a.35.35,0,0,0-.08-.22.36.36,0,0,0-.24-.07.27.27,0,0,0-.21.07.2.2,0,0,0-.07.16.15.15,0,0,0,.08.16,1.43,1.43,0,0,0,.28.13,1.15,1.15,0,0,1,.46.22.47.47,0,0,1,.16.37.41.41,0,0,1-.18.37.8.8,0,0,1-.49.14.85.85,0,0,1-.51-.15.47.47,0,0,1-.21-.44h.36a.28.28,0,0,0,.1.24.4.4,0,0,0,.26.08.35.35,0,0,0,.22-.06A.21.21,0,0,0,56.22,26.54Z" transform="translate(0.41 0.21)"/><path class="cls-2" d="M58.16,25.46h-.53v1.59h-.37V25.46h-.52v-.29h1.42Z" transform="translate(0.41 0.21)"/><path class="cls-2" d="M58.75,27.05h-.37V25.17h.37Z" transform="translate(0.41 0.21)"/><path class="cls-2" d="M60.08,26.54h0l.47-1.37H61v1.88h-.37V25.76h0l-.45,1.29H60l-.46-1.26h0v1.26h-.37V25.17h.49Z" transform="translate(0.41 0.21)"/><path class="cls-2" d="M62.85,25.17v1.21a.6.6,0,0,1-.21.49.82.82,0,0,1-.54.18.79.79,0,0,1-.53-.18.57.57,0,0,1-.2-.49V25.17h.37v1.21a.38.38,0,0,0,.1.29.35.35,0,0,0,.26.1.42.42,0,0,0,.28-.1.43.43,0,0,0,.1-.29V25.17Z" transform="translate(0.41 0.21)"/><path class="cls-2" d="M63.54,26.74h.83v.31h-1.2V25.17h.37Z" transform="translate(0.41 0.21)"/><path class="cls-2" d="M65.6,26.62H65l-.12.4h-.39l.62-1.85h.38l.65,1.88h-.39Zm-.51-.29h.42l-.2-.65h0Z" transform="translate(0.41 0.21)"/><path class="cls-2" d="M67.67,26.41h0a.61.61,0,0,1-.18.46.79.79,0,0,1-.51.18.72.72,0,0,1-.54-.21.77.77,0,0,1-.21-.56v-.36a.78.78,0,0,1,.2-.56.69.69,0,0,1,.55-.21.75.75,0,0,1,.52.16.59.59,0,0,1,.19.47h-.36a.39.39,0,0,0-.09-.26.32.32,0,0,0-.26-.09.29.29,0,0,0-.26.14.52.52,0,0,0-.1.34v.37a.62.62,0,0,0,.1.35.34.34,0,0,0,.28.14.3.3,0,0,0,.24-.09.37.37,0,0,0,.09-.27Z" transform="translate(0.41 0.21)"/><path class="cls-2" d="M68.33,27.05H68V25.17h.37Z" transform="translate(0.41 0.21)"/><path class="cls-2" d="M70.19,26.27a.81.81,0,0,1-.21.56.74.74,0,0,1-.56.22.72.72,0,0,1-.56-.22.77.77,0,0,1-.21-.56v-.34a.77.77,0,0,1,.21-.56.72.72,0,0,1,.56-.22.74.74,0,0,1,.56.22.81.81,0,0,1,.21.56Zm-.37-.34a.49.49,0,0,0-.11-.35.34.34,0,0,0-.29-.14.33.33,0,0,0-.3.14.55.55,0,0,0-.1.35v.34a.55.55,0,0,0,.1.35.33.33,0,0,0,.3.14.34.34,0,0,0,.29-.14.49.49,0,0,0,.11-.35Zm-.33-1.3h.42l-.35.33h-.32Z" transform="translate(0.41 0.21)"/><path class="cls-2" d="M72,27.05h-.37l-.75-1.24h0v1.24h-.38V25.17h.38l.74,1.25h0V25.17H72Z" transform="translate(0.41 0.21)"/><path class="cls-2" d="M32.41,28.58h-.53v1.56h-.37V28.58H31v-.29h1.43Z" transform="translate(0.41 0.21)"/><path class="cls-2" d="M33.67,29.33H33v.53h.81v.28H32.61V28.29H33.8v.29H33v.47h.68Z" transform="translate(0.41 0.21)"/><path class="cls-2" d="M35,29.66h0l.48-1.37H36v1.85h-.37V28.88h0l-.45,1.26H34.9l-.46-1.26h0v1.26h-.38V28.29h.49Z" transform="translate(0.41 0.21)"/><path class="cls-2" d="M36.69,29.47v.67h-.37V28.29H37a.71.71,0,0,1,.5.17.55.55,0,0,1,.18.43.56.56,0,0,1-.18.42.75.75,0,0,1-.5.16Zm0-.28H37a.36.36,0,0,0,.24-.09.32.32,0,0,0,.08-.21.35.35,0,0,0-.08-.22.36.36,0,0,0-.24-.09h-.34Z" transform="translate(0.41 0.21)"/><path class="cls-2" d="M38.35,29.4v.74H38V28.29h.64a.73.73,0,0,1,.49.15.49.49,0,0,1,.18.4.43.43,0,0,1-.07.25.63.63,0,0,1-.24.16.46.46,0,0,1,.23.16.53.53,0,0,1,.07.28v.14a.43.43,0,0,0,0,.16.17.17,0,0,0,.07.13H39a.09.09,0,0,1,0-.07.54.54,0,0,1,0-.18v-.13a.35.35,0,0,0-.08-.22.32.32,0,0,0-.21-.08Zm0-.28h.26a.36.36,0,0,0,.24-.07.26.26,0,0,0,.07-.19.31.31,0,0,0-.07-.21.39.39,0,0,0-.23-.07h-.27Z" transform="translate(0.41 0.21)"/><path class="cls-2" d="M40.6,29.74H40l-.12.4h-.37l.62-1.85h.38l.62,1.85h-.38Zm-.51-.29h.42l-.2-.65h0Z" transform="translate(0.41 0.21)"/><path class="cls-2" d="M42.79,30.14h-.38l-.74-1.24h0v1.24H41.3V28.29h.37l.75,1.25h0V28.29h.38Z" transform="translate(0.41 0.21)"/><path class="cls-2" d="M44.11,29.74h-.6l-.12.4H43l.62-1.85H44l.62,1.85h-.38Zm-.51-.29H44l-.2-.65h0Z" transform="translate(0.41 0.21)"/><path class="cls-2" d="M46.1,29.15h0l.4-.86h.41l-.63,1.2v.65h-.37v-.67l-.63-1.18h.41Z" transform="translate(0.41 0.21)"/><path class="cls-2" d="M49.25,29.39a.75.75,0,0,1-.78.78.7.7,0,0,1-.55-.22.82.82,0,0,1-.22-.56v-.34a.82.82,0,0,1,.22-.56.7.7,0,0,1,.55-.22.75.75,0,0,1,.78.78Zm-.37-.34a.61.61,0,0,0-.11-.35.33.33,0,0,0-.3-.14.32.32,0,0,0-.29.14.49.49,0,0,0-.11.35v.34a.49.49,0,0,0,.11.35.32.32,0,0,0,.29.14.33.33,0,0,0,.3-.14.61.61,0,0,0,.11-.35Z" transform="translate(0.41 0.21)"/><path class="cls-2" d="M49.91,29.4v.74h-.37V28.29h.64a.73.73,0,0,1,.49.15.49.49,0,0,1,.18.4.43.43,0,0,1-.07.25.69.69,0,0,1-.22.16.46.46,0,0,1,.23.16.53.53,0,0,1,.07.28v.14a.43.43,0,0,0,0,.16.17.17,0,0,0,.07.13h-.39a.16.16,0,0,1-.06-.13.54.54,0,0,1,0-.18v-.13a.35.35,0,0,0-.08-.22.32.32,0,0,0-.21-.08Zm0-.28h.26a.36.36,0,0,0,.24-.07.26.26,0,0,0,.07-.19.31.31,0,0,0-.07-.21.39.39,0,0,0-.23-.07h-.27Z" transform="translate(0.41 0.21)"/><path class="cls-2" d="M51.59,30.14h-.37V28.29h.37Z" transform="translate(0.41 0.21)"/><path class="cls-2" d="M53,29.33h-.69v.53h.82v.28H52V28.29h1.18v.29h-.81v.47H53Z" transform="translate(0.41 0.21)"/><path class="cls-2" d="M54.9,30.14h-.37l-.75-1.24h0v1.24h-.37V28.29h.37l.74,1.25h0V28.29h.37Z" transform="translate(0.41 0.21)"/><path class="cls-2" d="M56.49,28.58H56v1.56h-.37V28.58h-.52v-.29h1.42Z" transform="translate(0.41 0.21)"/><path class="cls-2" d="M57.52,29.74h-.6l-.12.4h-.39L57,28.29h.38L58,30.14h-.38ZM57,29.45h.42l-.2-.65h0Z" transform="translate(0.41 0.21)"/><path class="cls-2" d="M59.58,29.53h0a.61.61,0,0,1-.18.46.76.76,0,0,1-.52.17.7.7,0,0,1-.53-.21.77.77,0,0,1-.21-.56v-.34a.78.78,0,0,1,.2-.56.7.7,0,0,1,.53-.21.75.75,0,0,1,.52.16.59.59,0,0,1,.19.47h-.36a.39.39,0,0,0-.09-.26.32.32,0,0,0-.26-.09.29.29,0,0,0-.26.14.52.52,0,0,0-.1.34v.37a.62.62,0,0,0,.1.35.32.32,0,0,0,.27.14.3.3,0,0,0,.25-.09.38.38,0,0,0,.08-.27Z" transform="translate(0.41 0.21)"/><path class="cls-2" d="M60.25,30.14h-.37V28.29h.37Z" transform="translate(0.41 0.21)"/><path class="cls-2" d="M62.11,29.39a.81.81,0,0,1-.21.56.74.74,0,0,1-.56.22.72.72,0,0,1-.56-.22.77.77,0,0,1-.21-.56v-.34a.77.77,0,0,1,.21-.56.72.72,0,0,1,.56-.22.72.72,0,0,1,.55.22.74.74,0,0,1,.22.56Zm-.37-.34a.49.49,0,0,0-.11-.35.34.34,0,0,0-.29-.14.33.33,0,0,0-.3.14.54.54,0,0,0-.06.35v.34a.55.55,0,0,0,.1.35.33.33,0,0,0,.3.14.34.34,0,0,0,.29-.14.49.49,0,0,0,.11-.35Zm-.33-1.3h.42l-.35.3h-.32Z" transform="translate(0.41 0.21)"/><path class="cls-2" d="M63.9,30.14h-.37l-.75-1.24h0v1.24h-.37V28.29h.37l.75,1.25h0V28.29h.37Z" transform="translate(0.41 0.21)"/><path class="cls-2" d="M65.26,29.47v.67h-.38V28.29h.71a.71.71,0,0,1,.5.17.51.51,0,0,1,.19.43.55.55,0,0,1-.19.42.75.75,0,0,1-.5.16Zm0-.28h.33a.3.3,0,0,0,.24-.09.32.32,0,0,0,.08-.21.35.35,0,0,0-.08-.22.3.3,0,0,0-.24-.09h-.33Z" transform="translate(0.41 0.21)"/><path class="cls-2" d="M67.51,29.66a.21.21,0,0,0-.08-.17,1.23,1.23,0,0,0-.26-.12,1.69,1.69,0,0,1-.49-.23.42.42,0,0,1-.16-.36.44.44,0,0,1,.19-.37.72.72,0,0,1,.47-.14.76.76,0,0,1,.5.15.52.52,0,0,1,.18.41H67.5a.31.31,0,0,0-.09-.22.33.33,0,0,0-.23-.07.29.29,0,0,0-.22.07.24.24,0,0,0-.07.16.21.21,0,0,0,.08.16,1.43,1.43,0,0,0,.28.13,1.19,1.19,0,0,1,.47.22.51.51,0,0,1,.16.37.44.44,0,0,1-.19.37.8.8,0,0,1-.49.14.85.85,0,0,1-.51-.15.51.51,0,0,1-.21-.44h.36a.28.28,0,0,0,.1.24.4.4,0,0,0,.26.08.38.38,0,0,0,.23-.06A.21.21,0,0,0,67.51,29.66Z" transform="translate(0.41 0.21)"/><path class="cls-2" d="M68.55,30.14h-.38V28.29h.38Z" transform="translate(0.41 0.21)"/><path class="cls-2" d="M70.3,29.53h0a.58.58,0,0,1-.18.46.81.81,0,0,1-1,0,.78.78,0,0,1-.2-.56v-.38a.76.76,0,0,1,.2-.56.67.67,0,0,1,.52-.21.78.78,0,0,1,.53.16.55.55,0,0,1,.18.47H70a.47.47,0,0,0-.08-.26.38.38,0,0,0-.27-.09.29.29,0,0,0-.26.14.52.52,0,0,0-.09.34v.37a.55.55,0,0,0,.1.35.32.32,0,0,0,.27.14.34.34,0,0,0,.25-.09.43.43,0,0,0,.08-.27Z" transform="translate(0.41 0.21)"/><path class="cls-2" d="M72.06,29.39a.81.81,0,0,1-.21.56.83.83,0,0,1-1.12,0,.77.77,0,0,1-.21-.56v-.34a.77.77,0,0,1,.21-.56.72.72,0,0,1,.56-.22.74.74,0,0,1,.56.22.81.81,0,0,1,.21.56Zm-.37-.34a.55.55,0,0,0-.1-.35.37.37,0,0,0-.3-.14.33.33,0,0,0-.3.14.55.55,0,0,0-.1.35v.34a.55.55,0,0,0,.1.35.33.33,0,0,0,.3.14.35.35,0,0,0,.3-.14.55.55,0,0,0,.1-.35Z" transform="translate(0.41 0.21)"/><path class="cls-2" d="M72.73,29.86h.82v.28H72.36V28.29h.37Z" transform="translate(0.41 0.21)"/><path class="cls-2" d="M75.26,29.39a.81.81,0,0,1-.21.56A.76.76,0,0,1,74,30a.77.77,0,0,1-.21-.56v-.34a.77.77,0,0,1,.21-.56.83.83,0,0,1,1.12,0,.81.81,0,0,1,.21.56Zm-.37-.34a.55.55,0,0,0-.1-.35.35.35,0,0,0-.3-.14.3.3,0,0,0-.29.14.49.49,0,0,0-.11.35v.34a.49.49,0,0,0,.11.35.3.3,0,0,0,.29.14.33.33,0,0,0,.3-.14.55.55,0,0,0,.1-.35Zm-.32-1.3H75l-.35.33h-.32Z" transform="translate(0.41 0.21)"/><path class="cls-2" d="M77,29.89a.6.6,0,0,1-.25.2,1.16,1.16,0,0,1-.45.08.72.72,0,0,1-.54-.21.7.7,0,0,1-.22-.55v-.36a.76.76,0,0,1,.21-.55.7.7,0,0,1,.53-.21.75.75,0,0,1,.52.16.54.54,0,0,1,.17.43H76.6a.35.35,0,0,0-.08-.22.36.36,0,0,0-.51,0h0a.44.44,0,0,0-.11.33v.39a.48.48,0,0,0,.11.34.34.34,0,0,0,.28.14.74.74,0,0,0,.21,0l.12-.07v-.36h-.35v-.25H77Z" transform="translate(0.41 0.21)"/><path class="cls-2" d="M77.68,30.14h-.37V28.29h.37Z" transform="translate(0.41 0.21)"/><path class="cls-2" d="M79.44,29.53h0a.61.61,0,0,1-.18.46.83.83,0,0,1-1.05,0,.76.76,0,0,1-.2-.56v-.38a.76.76,0,0,1,.2-.56.67.67,0,0,1,.52-.21.83.83,0,0,1,.53.16.58.58,0,0,1,.18.47h-.36a.39.39,0,0,0-.09-.26.32.32,0,0,0-.26-.09.29.29,0,0,0-.26.14.52.52,0,0,0-.09.34v.37a.54.54,0,0,0,.09.35.37.37,0,0,0,.53,0,.43.43,0,0,0,.08-.27Z" transform="translate(0.41 0.21)"/><path class="cls-2" d="M80.67,29.74h-.6l-.12.4h-.39l.62-1.85h.38l.62,1.85h-.39Zm-.51-.29h.42l-.21-.65h0Z" transform="translate(0.41 0.21)"/><image width="1890" height="1890" transform="scale(0.02)" xlink:href="../../../../../Users/alber/Desktop/9no%20SEMESTRE/Tohu%C3%AD/Tohui.png"/></svg>