<svg id="Capa_1" data-name="Capa 1" xmlns="http://www.w3.org/2000/svg" viewBox="0 0 51.79 19.74"><defs><style>.cls-1{fill:#00bfd3;}</style></defs><title>Logo_Tohuí</title><path class="cls-1" d="M7.11,19.88c0,.11-.12.19-.35.25a3.81,3.81,0,0,1-.78.08,3.55,3.55,0,0,1-.67-.06c-.21,0-.33-.1-.36-.2a7.36,7.36,0,0,1-.23-1.29A14.19,14.19,0,0,1,4.64,17c0-.71,0-1.46.1-2.27s.15-1.63.25-2.47.22-1.67.35-2.51.25-1.62.39-2.36S6,6,6.12,5.35s.24-1.16.34-1.6l-.13,0L5.56,4l-.93.18c-.33.07-.65.12-1,.16s-.65,0-1,0a5.48,5.48,0,0,1-.88-.07A3.09,3.09,0,0,1,1,4a1.64,1.64,0,0,1-.63-.45A1,1,0,0,1,.1,2.86a.32.32,0,0,1,.09-.2.29.29,0,0,1,.22-.11.29.29,0,0,1,.21.08.28.28,0,0,1,.1.17,1,1,0,0,0,.58.69,2.89,2.89,0,0,0,1.22.22A8.71,8.71,0,0,0,3.6,3.64c.4-.05.82-.11,1.27-.2s.91-.17,1.39-.28l1.42-.31L9.21,2.5c.52-.12,1-.22,1.55-.31s1-.16,1.48-.22a12.57,12.57,0,0,1,1.31-.08A5.86,5.86,0,0,1,14.71,2a2.56,2.56,0,0,1,.89.36,1.73,1.73,0,0,1,.59.64,2.19,2.19,0,0,1,.21,1,2.68,2.68,0,0,1,0,.45.28.28,0,0,1-.31.26c-.22,0-.33-.12-.33-.35a1,1,0,0,0,0-.16V4a1.45,1.45,0,0,0-.18-.74A1.31,1.31,0,0,0,15,2.82a2.45,2.45,0,0,0-.75-.25,5.43,5.43,0,0,0-.92-.08,8.66,8.66,0,0,0-1.11.08c-.38.05-.75.1-1.12.17s-.73.14-1.06.22l-.88.21-.4.09c0,.16-.11.52-.22,1.08S8.33,5.6,8.19,6.42s-.3,1.72-.45,2.72-.29,2-.43,3-.24,2-.33,3S6.86,17,6.86,17.72c0,.46,0,.87,0,1.23a2.72,2.72,0,0,0,.2.86Z" transform="translate(-0.1 -0.56)"/><path class="cls-1" d="M22.46,11.31a11.6,11.6,0,0,1-.86,1.46,8.4,8.4,0,0,1-1,1.28,5.44,5.44,0,0,1-1.18.9,2.5,2.5,0,0,1-1.24.34H18a10.13,10.13,0,0,1-.62,1.06,6.92,6.92,0,0,1-.74.92,3.44,3.44,0,0,1-.85.65,2.06,2.06,0,0,1-1,.25,2.09,2.09,0,0,1-1.2-.35,3,3,0,0,1-.86-.9,4,4,0,0,1-.53-1.25,5.64,5.64,0,0,1-.17-1.4,5.12,5.12,0,0,1,.17-1.36,3.27,3.27,0,0,1,.52-1.13,2.91,2.91,0,0,1-.42-.8,2.57,2.57,0,0,1-.15-.84A3.06,3.06,0,0,1,12.39,9,3.12,3.12,0,0,1,13,8.08a2.94,2.94,0,0,1,.86-.63,2.24,2.24,0,0,1,1-.24,3.12,3.12,0,0,1,1.84.53A4,4,0,0,1,17.88,9a6,6,0,0,1,.65,1.67,7.61,7.61,0,0,1,.2,1.62,6.59,6.59,0,0,1-.08,1,6.67,6.67,0,0,1-.23,1.05,1.74,1.74,0,0,0,.89-.28,4.94,4.94,0,0,0,1-.77,10.13,10.13,0,0,0,.92-1.14A13.17,13.17,0,0,0,22,10.83a.1.1,0,0,1,.14,0,.45.45,0,0,1,.17.11.53.53,0,0,1,.13.2A.36.36,0,0,1,22.46,11.31ZM13.27,9.72a2.34,2.34,0,0,0,.07.57,2.48,2.48,0,0,0,.25.6,3.53,3.53,0,0,1,.79-.89,1.44,1.44,0,0,1,.89-.31.82.82,0,0,1,.42.11.35.35,0,0,1,.18.3c0,.14-.09.24-.26.31a1.78,1.78,0,0,0-.65.77,5.93,5.93,0,0,0-.51,1.35,6.82,6.82,0,0,0,.65.55,8.32,8.32,0,0,0,.85.56c.3.17.59.32.88.45a3.22,3.22,0,0,0,.79.27,6.33,6.33,0,0,0,.25-1A7.11,7.11,0,0,0,18,12.18a5.84,5.84,0,0,0-.18-1.35,5.6,5.6,0,0,0-.55-1.39,3.88,3.88,0,0,0-.92-1.08,2,2,0,0,0-1.26-.44,1.58,1.58,0,0,0-.63.13,1.87,1.87,0,0,0-.57.35,1.76,1.76,0,0,0-.42.57A1.65,1.65,0,0,0,13.27,9.72Zm4,5.43a6.59,6.59,0,0,1-1.68-.66,9.45,9.45,0,0,1-1.4-.94c0,.19-.05.41-.08.65a6.23,6.23,0,0,0-.05.77,4.62,4.62,0,0,0,.07.73,2.71,2.71,0,0,0,.2.68,1.48,1.48,0,0,0,.34.49.66.66,0,0,0,.49.19,1.26,1.26,0,0,0,.65-.2,3.54,3.54,0,0,0,.61-.49,4.12,4.12,0,0,0,.5-.62A5.06,5.06,0,0,0,17.29,15.15Z" transform="translate(-0.1 -0.56)"/><path class="cls-1" d="M24.21,11.51c-.12.75-.21,1.48-.27,2.2s-.09,1.44-.12,2.17c.47-1.19.87-2.13,1.22-2.81s.66-1.21.91-1.58a3.19,3.19,0,0,1,.84-.81,1.68,1.68,0,0,1,.88-.28,1.23,1.23,0,0,1,.92.39,2.74,2.74,0,0,1,.62,1A5.31,5.31,0,0,1,29.56,13a7.51,7.51,0,0,1,.11,1.18,10.28,10.28,0,0,1-.06,1.13c-.05.37-.1.74-.16,1.12s-.11.8-.15,1.21a10.74,10.74,0,0,0-.07,1.3,2.53,2.53,0,0,0,0,.53c0,.14.06.2.13.2s.27-.12.46-.36a8,8,0,0,0,.63-1c.23-.39.47-.85.74-1.36s.51-1,.76-1.58.49-1.06.72-1.57l.61-1.4c.18-.41.31-.75.42-1s.16-.42.17-.44a.41.41,0,0,1,.38-.22.34.34,0,0,1,.27.12.42.42,0,0,1,.1.24s-.08.22-.22.58l-.57,1.35c-.24.55-.51,1.15-.81,1.82s-.6,1.31-.92,1.94S31.5,18,31.2,18.56a9.6,9.6,0,0,1-.82,1.23,1.42,1.42,0,0,1-.53.39,1.31,1.31,0,0,1-.53.12,1.64,1.64,0,0,1-.95-.26,1.83,1.83,0,0,1-.59-.7,3.41,3.41,0,0,1-.31-1,7.27,7.27,0,0,1-.09-1.16,12.56,12.56,0,0,1,.08-1.5c.05-.51.11-1,.17-1.47s.11-.73.14-1.06,0-.63,0-.87a1.66,1.66,0,0,0-.07-.56c0-.14-.13-.2-.24-.2s-.5.18-.79.54a9.09,9.09,0,0,0-.86,1.37c-.3.54-.58,1.13-.86,1.76s-.53,1.22-.75,1.75L23.79,18a.68.68,0,0,1-.37.33,1.88,1.88,0,0,1-.65.11,1.77,1.77,0,0,1-.77-.17.6.6,0,0,1-.38-.42c0-.29,0-.61-.05-.94s0-.68,0-1c0-1,.05-2,.14-3.17a28.81,28.81,0,0,1,.51-3.42A24.59,24.59,0,0,1,23.11,6a11.78,11.78,0,0,1,1.42-2.79,7,7,0,0,1,2-1.94A4.79,4.79,0,0,1,29.12.56a3.46,3.46,0,0,1,1.21.22,3.38,3.38,0,0,1,1,.6,3,3,0,0,1,.7.91,2.58,2.58,0,0,1,.27,1.17A4.41,4.41,0,0,1,32,5.15,7.72,7.72,0,0,1,31,6.79a9.36,9.36,0,0,1-1.38,1.53A15.53,15.53,0,0,1,28,9.66a14.49,14.49,0,0,1-1.86,1.08A13.41,13.41,0,0,1,24.21,11.51Zm5.55-9.74a3,3,0,0,0-2.08.79,7.07,7.07,0,0,0-1.54,2.06A14.8,14.8,0,0,0,25,7.48a29.91,29.91,0,0,0-.72,3.19,13.43,13.43,0,0,0,2.54-1.19A14.61,14.61,0,0,0,29.2,7.72a10.1,10.1,0,0,0,1.72-2.1,4.37,4.37,0,0,0,.66-2.23,1.63,1.63,0,0,0-.16-.77,1.49,1.49,0,0,0-.43-.5,1.62,1.62,0,0,0-.58-.27A2.41,2.41,0,0,0,29.76,1.77Z" transform="translate(-0.1 -0.56)"/><path class="cls-1" d="M39,10a.78.78,0,0,1,.47-.33,2.7,2.7,0,0,1,.7-.12,1.67,1.67,0,0,1,.65.11.4.4,0,0,1,.28.37,6.12,6.12,0,0,1-.07.63c0,.3-.11.64-.17,1l-.12.67c-.05.32-.11.68-.18,1.1s-.13.84-.18,1.3-.09.87-.11,1.24a4.39,4.39,0,0,0,0,.92c0,.24.11.36.23.36a1.23,1.23,0,0,0,.78-.35,5.37,5.37,0,0,0,.82-.91A13.82,13.82,0,0,0,43,14.74c.26-.47.52-.94.77-1.41L44.44,12c.22-.42.4-.78.56-1.06a.3.3,0,0,1,.16-.17.36.36,0,0,1,.23,0,.46.46,0,0,1,.2.13.33.33,0,0,1,.08.22s-.08.21-.23.56-.38.79-.64,1.3-.58,1.07-.93,1.67a16.94,16.94,0,0,1-1.11,1.65,8.55,8.55,0,0,1-1.19,1.26,1.87,1.87,0,0,1-1.16.51,1.73,1.73,0,0,1-1.27-.47,3.1,3.1,0,0,1-.69-1.15A5.09,5.09,0,0,1,38.2,15a8.73,8.73,0,0,1,0-1.29c-.27.57-.53,1.09-.79,1.56s-.5.87-.73,1.21a4,4,0,0,1-.71.79,1.15,1.15,0,0,1-.71.28,1.43,1.43,0,0,1-1.08-.4,2.31,2.31,0,0,1-.56-1,5.35,5.35,0,0,1-.18-1.44A14.66,14.66,0,0,1,33.56,13c0-.55.11-1.07.19-1.58s.12-.93.16-1.28a1.07,1.07,0,0,1,.47-.31A1.81,1.81,0,0,1,35,9.72a1.09,1.09,0,0,1,.57.12.5.5,0,0,1,.24.48,1.67,1.67,0,0,0-.06.37c0,.29-.1.67-.16,1.14s-.11,1-.17,1.57-.1,1.1-.13,1.58a10.27,10.27,0,0,0,0,1.23c0,.34.07.5.15.5s.26-.11.44-.34a9,9,0,0,0,.6-.91c.22-.38.44-.81.68-1.3s.47-1,.7-1.47.45-1,.66-1.46S38.9,10.34,39,10Z" transform="translate(-0.1 -0.56)"/><path class="cls-1" d="M45.22,10a.7.7,0,0,1,.46-.36,2.59,2.59,0,0,1,.73-.12,1.46,1.46,0,0,1,.67.12.41.41,0,0,1,.3.38,3.82,3.82,0,0,1-.07.62q-.08.42-.18,1,0,.16-.12.57c-.06.26-.11.57-.17.91s-.12.69-.17,1.07a10.58,10.58,0,0,0-.09,1.06,3.61,3.61,0,0,0,.05.84.56.56,0,0,0,.26.45c.13.06.31,0,.54-.22a6.91,6.91,0,0,0,.74-.85A14.76,14.76,0,0,0,49,14.18l.84-1.31c.27-.42.51-.81.72-1.15s.37-.57.48-.71a2.2,2.2,0,0,1,.2-.23.37.37,0,0,1,.27-.11.32.32,0,0,1,.28.13.43.43,0,0,1,.09.25,3,3,0,0,1-.26.67c-.17.37-.39.81-.67,1.33s-.6,1.06-1,1.64a18.91,18.91,0,0,1-1.12,1.61,7.64,7.64,0,0,1-1.17,1.22,1.73,1.73,0,0,1-1.07.49,1.93,1.93,0,0,1-1.08-.29,2.17,2.17,0,0,1-.69-.78,3.6,3.6,0,0,1-.36-1.12,7.16,7.16,0,0,1-.11-1.33,10.34,10.34,0,0,1,.08-1.34c.05-.45.12-.88.2-1.28s.17-.77.26-1.1A8.15,8.15,0,0,1,45.22,10Zm1.65-3.24a1.41,1.41,0,0,1,1,.36,1.11,1.11,0,0,1,.38.84,1.08,1.08,0,0,1-.38.83,1.41,1.41,0,0,1-1,.35,1.51,1.51,0,0,1-1-.34,1.09,1.09,0,0,1-.4-.84,1.13,1.13,0,0,1,.4-.85A1.52,1.52,0,0,1,46.87,6.72ZM47.18,6A12.46,12.46,0,0,1,48,4.51a5.35,5.35,0,0,1,.67-.85,1.6,1.6,0,0,1,.53-.37,1.28,1.28,0,0,1,.44-.09.86.86,0,0,1,.43.13.37.37,0,0,1,.21.31.74.74,0,0,1-.07.18,9,9,0,0,0-1.19,1c-.39.38-.76.76-1.11,1.12a3,3,0,0,1-.31.25.57.57,0,0,1-.29.14c-.11,0-.16-.06-.16-.17A.46.46,0,0,1,47.2,6Z" transform="translate(-0.1 -0.56)"/></svg>