<svg id="Capa_1" data-name="Capa 1" xmlns="http://www.w3.org/2000/svg" viewBox="0 0 51.79 30.17"><defs><style>.cls-1{fill:#00bfd3;}.cls-2{fill:#ff9edd;}</style></defs><title>Logo_Letras</title><path class="cls-1" d="M7.21,20.26c0,.11-.12.19-.35.25a3.81,3.81,0,0,1-.78.08,4.68,4.68,0,0,1-.67-.05q-.31-.06-.36-.21A7.36,7.36,0,0,1,4.82,19a14.19,14.19,0,0,1-.08-1.64c0-.7,0-1.46.1-2.27s.15-1.63.25-2.47.22-1.67.35-2.5.25-1.63.39-2.37.26-1.44.39-2.06.24-1.16.34-1.6l-.13,0-.77.19-.93.19q-.48.09-1,.15c-.33,0-.65.05-1,.05a5.48,5.48,0,0,1-.88-.07,3.09,3.09,0,0,1-.83-.25A1.64,1.64,0,0,1,.45,4,1.09,1.09,0,0,1,.2,3.24.32.32,0,0,1,.29,3a.29.29,0,0,1,.22-.11A.29.29,0,0,1,.72,3a.28.28,0,0,1,.1.17,1,1,0,0,0,.58.69,2.89,2.89,0,0,0,1.22.22A8.71,8.71,0,0,0,3.7,4c.4,0,.82-.11,1.27-.2l1.39-.27,1.42-.32,1.53-.35c.52-.12,1-.22,1.55-.31s1-.16,1.48-.21a10.43,10.43,0,0,1,1.31-.09,5.86,5.86,0,0,1,1.16.11,2.56,2.56,0,0,1,.89.36,1.73,1.73,0,0,1,.59.64,2.19,2.19,0,0,1,.21,1,2.68,2.68,0,0,1-.05.45.28.28,0,0,1-.31.26c-.22,0-.33-.12-.33-.35a.92.92,0,0,0,0-.16V4.42a1.45,1.45,0,0,0-.18-.74,1.31,1.31,0,0,0-.51-.48A2.45,2.45,0,0,0,14.38,3a5.43,5.43,0,0,0-.92-.08,8.38,8.38,0,0,0-1.1.08c-.39,0-.76.1-1.13.17s-.73.14-1.06.22l-.88.21-.4.09c0,.16-.11.52-.22,1.08S8.43,6,8.29,6.8,8,8.53,7.84,9.52s-.29,2-.43,3-.24,2-.33,3S7,17.34,7,18.1c0,.46,0,.87,0,1.23a3,3,0,0,0,.2.86Z" transform="translate(-0.2 -0.95)"/><path class="cls-1" d="M22.56,11.69a11.6,11.6,0,0,1-.86,1.46,8.4,8.4,0,0,1-1,1.28,5.21,5.21,0,0,1-1.18.9,2.49,2.49,0,0,1-1.23.34h-.13a8.63,8.63,0,0,1-.62,1.06,6.92,6.92,0,0,1-.74.92,3.26,3.26,0,0,1-.85.65,2,2,0,0,1-1,.25,2.09,2.09,0,0,1-1.2-.35,3,3,0,0,1-.86-.9,4,4,0,0,1-.53-1.25,5.59,5.59,0,0,1-.17-1.4,5.12,5.12,0,0,1,.17-1.36,3.27,3.27,0,0,1,.52-1.13,2.91,2.91,0,0,1-.42-.8,2.57,2.57,0,0,1-.15-.84,3.06,3.06,0,0,1,.22-1.12,3.12,3.12,0,0,1,.59-.94,2.94,2.94,0,0,1,.86-.63,2.24,2.24,0,0,1,1-.24,3.12,3.12,0,0,1,1.84.53A4,4,0,0,1,18,9.42a6,6,0,0,1,.65,1.67,7.61,7.61,0,0,1,.2,1.62,6.83,6.83,0,0,1-.08,1,6.57,6.57,0,0,1-.23,1,1.74,1.74,0,0,0,.89-.28,4.94,4.94,0,0,0,.95-.77,10.13,10.13,0,0,0,.92-1.14,13.17,13.17,0,0,0,.81-1.38.1.1,0,0,1,.14,0,.47.47,0,0,1,.18.12.52.52,0,0,1,.12.19A.36.36,0,0,1,22.56,11.69ZM13.37,10.1a2.28,2.28,0,0,0,.07.57,2.48,2.48,0,0,0,.25.6,3.37,3.37,0,0,1,.8-.89,1.39,1.39,0,0,1,.88-.31.82.82,0,0,1,.42.11.36.36,0,0,1,.18.31c0,.13-.09.23-.26.3a1.85,1.85,0,0,0-.65.77,5.93,5.93,0,0,0-.51,1.35,6.82,6.82,0,0,0,.65.55,8.32,8.32,0,0,0,.85.56c.3.17.59.32.88.45a3.22,3.22,0,0,0,.79.27,6.33,6.33,0,0,0,.25-1,7.11,7.11,0,0,0,.09-1.14,5.84,5.84,0,0,0-.18-1.35,5.6,5.6,0,0,0-.55-1.39,3.88,3.88,0,0,0-.92-1.08,2,2,0,0,0-1.26-.44,1.58,1.58,0,0,0-.63.13,1.87,1.87,0,0,0-.57.35,1.76,1.76,0,0,0-.42.57A1.65,1.65,0,0,0,13.37,10.1Zm4,5.43a6.59,6.59,0,0,1-1.68-.66,9.45,9.45,0,0,1-1.4-.94c0,.19-.05.41-.08.65a6.29,6.29,0,0,0,0,.77,4.59,4.59,0,0,0,.06.73,2.71,2.71,0,0,0,.2.68,1.48,1.48,0,0,0,.34.49.66.66,0,0,0,.49.19,1.26,1.26,0,0,0,.65-.2,3.12,3.12,0,0,0,.61-.49,4.12,4.12,0,0,0,.5-.62A5.06,5.06,0,0,0,17.39,15.53Z" transform="translate(-0.2 -0.95)"/><path class="cls-1" d="M24.31,11.89c-.12.75-.21,1.48-.27,2.2s-.09,1.44-.11,2.17a27.67,27.67,0,0,1,1.22-2.81,14.22,14.22,0,0,1,.91-1.58,3,3,0,0,1,.83-.81,1.68,1.68,0,0,1,.88-.28,1.27,1.27,0,0,1,.93.39,2.87,2.87,0,0,1,.61,1,5.31,5.31,0,0,1,.35,1.23,7.51,7.51,0,0,1,.11,1.18,10.28,10.28,0,0,1-.06,1.13c-.05.37-.1.74-.16,1.12s-.11.8-.15,1.21a10.74,10.74,0,0,0-.07,1.3,2.53,2.53,0,0,0,0,.53c0,.14.07.2.13.2s.27-.12.46-.36a8,8,0,0,0,.63-1c.23-.39.47-.85.74-1.36s.51-1,.76-1.58.49-1.06.72-1.57l.61-1.39q.27-.63.42-1c.1-.27.16-.42.17-.44a.41.41,0,0,1,.38-.22.34.34,0,0,1,.27.12.42.42,0,0,1,.1.24s-.08.22-.22.58L34,13.43c-.24.55-.51,1.15-.8,1.82s-.61,1.31-.93,1.94-.64,1.22-.94,1.75a8.65,8.65,0,0,1-.82,1.23,1.58,1.58,0,0,1-.53.4,1.48,1.48,0,0,1-.53.11,1.66,1.66,0,0,1-1-.26,1.83,1.83,0,0,1-.59-.7,3.41,3.41,0,0,1-.31-1,7.27,7.27,0,0,1-.09-1.16,12.56,12.56,0,0,1,.08-1.5c.05-.51.11-1,.17-1.47s.11-.73.14-1.06,0-.63,0-.87a1.66,1.66,0,0,0-.07-.56c-.05-.14-.13-.2-.24-.2s-.5.18-.79.54A10,10,0,0,0,26,13.8c-.3.54-.58,1.13-.86,1.76s-.53,1.22-.75,1.75l-.45,1.06a.68.68,0,0,1-.37.33,1.88,1.88,0,0,1-.65.11,1.77,1.77,0,0,1-.77-.17.6.6,0,0,1-.38-.42c0-.29,0-.6,0-.94s0-.68,0-1c0-1,.05-2,.15-3.17a26.86,26.86,0,0,1,.5-3.42,23.19,23.19,0,0,1,.92-3.27,11.4,11.4,0,0,1,1.41-2.79,7.15,7.15,0,0,1,2-1.94A4.78,4.78,0,0,1,29.22,1a3.46,3.46,0,0,1,1.21.21,3.38,3.38,0,0,1,1,.6,3,3,0,0,1,.71.91,2.71,2.71,0,0,1,.26,1.17,4.41,4.41,0,0,1-.35,1.69,7.72,7.72,0,0,1-.93,1.64A8.93,8.93,0,0,1,29.75,8.7,15.53,15.53,0,0,1,28.06,10a14.49,14.49,0,0,1-1.86,1.08A13.41,13.41,0,0,1,24.31,11.89Zm5.55-9.74a3,3,0,0,0-2.07.79A6.85,6.85,0,0,0,26.24,5a14.45,14.45,0,0,0-1.1,2.85,29.91,29.91,0,0,0-.72,3.19A13.43,13.43,0,0,0,27,9.86,14.61,14.61,0,0,0,29.3,8.1,10.1,10.1,0,0,0,31,6a4.37,4.37,0,0,0,.66-2.23A1.63,1.63,0,0,0,31.52,3a1.49,1.49,0,0,0-.43-.5,1.62,1.62,0,0,0-.58-.27A2.41,2.41,0,0,0,29.86,2.15Z" transform="translate(-0.2 -0.95)"/><path class="cls-1" d="M39.15,10.36a.72.72,0,0,1,.46-.33,2.7,2.7,0,0,1,.7-.12A1.67,1.67,0,0,1,41,10a.4.4,0,0,1,.28.37,6.12,6.12,0,0,1-.07.63c-.05.3-.11.64-.17,1l-.12.67c-.05.32-.11.68-.18,1.1s-.13.84-.18,1.3-.09.87-.11,1.24a4.39,4.39,0,0,0,0,.92c0,.24.11.36.23.36a1.23,1.23,0,0,0,.78-.35,5,5,0,0,0,.82-.91,13.82,13.82,0,0,0,.81-1.26c.26-.47.52-.94.77-1.41s.48-.92.69-1.35.4-.78.56-1.06a.3.3,0,0,1,.16-.17.36.36,0,0,1,.23,0,.46.46,0,0,1,.2.13.29.29,0,0,1,.08.22s-.08.21-.23.56-.37.79-.64,1.3S44.32,14.41,44,15a16.94,16.94,0,0,1-1.11,1.65,8.55,8.55,0,0,1-1.19,1.26,1.85,1.85,0,0,1-1.16.51A1.69,1.69,0,0,1,39.25,18a3.12,3.12,0,0,1-.7-1.15,5.09,5.09,0,0,1-.25-1.42,8.73,8.73,0,0,1,0-1.29c-.27.57-.53,1.09-.79,1.56s-.5.87-.73,1.21a4,4,0,0,1-.71.79,1.12,1.12,0,0,1-.7.28,1.43,1.43,0,0,1-1.09-.4,2.31,2.31,0,0,1-.56-1.05A5.35,5.35,0,0,1,33.57,15a14.66,14.66,0,0,1,.09-1.62c.05-.55.11-1.07.19-1.58s.12-.93.16-1.28a1.07,1.07,0,0,1,.47-.31,2.07,2.07,0,0,1,.63-.15,1.06,1.06,0,0,1,.57.12.5.5,0,0,1,.24.48,2,2,0,0,0-.06.37c0,.29-.1.67-.16,1.14s-.11,1-.17,1.57-.1,1.1-.13,1.58a10.27,10.27,0,0,0,0,1.23c0,.34.07.5.15.5s.26-.11.44-.34a9,9,0,0,0,.6-.91c.22-.38.44-.81.68-1.3s.47-1,.7-1.47.45-1,.66-1.46Z" transform="translate(-0.2 -0.95)"/><path class="cls-1" d="M45.32,10.34a.7.7,0,0,1,.46-.36,2.59,2.59,0,0,1,.73-.12,1.46,1.46,0,0,1,.67.12.41.41,0,0,1,.3.38,3.82,3.82,0,0,1-.07.62q-.07.42-.18,1,0,.17-.12.57c-.06.26-.11.57-.17.91s-.12.69-.17,1.07a10.58,10.58,0,0,0-.09,1.06,3.61,3.61,0,0,0,0,.84.56.56,0,0,0,.26.45c.14.06.31,0,.54-.22a6.91,6.91,0,0,0,.74-.85,14.76,14.76,0,0,0,.85-1.21L50,13.25l.72-1.14a6.76,6.76,0,0,1,.48-.71,1.59,1.59,0,0,1,.2-.24.37.37,0,0,1,.27-.11.32.32,0,0,1,.28.13.43.43,0,0,1,.09.25,3,3,0,0,1-.26.67c-.17.37-.39.81-.67,1.33s-.6,1.06-1,1.64A17.44,17.44,0,0,1,49,16.68a7.64,7.64,0,0,1-1.17,1.22,1.73,1.73,0,0,1-1.07.49,1.93,1.93,0,0,1-1.08-.29,2.17,2.17,0,0,1-.69-.78,3.6,3.6,0,0,1-.36-1.12,7.16,7.16,0,0,1-.11-1.33,10.09,10.09,0,0,1,.08-1.33c.05-.46.12-.89.2-1.29s.17-.77.26-1.1A8.15,8.15,0,0,1,45.32,10.34ZM47,7.1a1.41,1.41,0,0,1,1,.36,1.13,1.13,0,0,1,.39.84,1.09,1.09,0,0,1-.39.83,1.41,1.41,0,0,1-1,.35,1.51,1.51,0,0,1-1-.34,1.09,1.09,0,0,1-.4-.84,1.13,1.13,0,0,1,.4-.85A1.52,1.52,0,0,1,47,7.1Zm.31-.73a12.46,12.46,0,0,1,.8-1.48A5.35,5.35,0,0,1,48.75,4a1.53,1.53,0,0,1,.54-.37,1.18,1.18,0,0,1,.43-.09.86.86,0,0,1,.43.13.37.37,0,0,1,.21.31.74.74,0,0,1-.07.18,9,9,0,0,0-1.19,1c-.39.38-.76.76-1.11,1.12a3,3,0,0,1-.31.25.57.57,0,0,1-.29.14c-.11,0-.16-.06-.16-.17a.46.46,0,0,1,.07-.18Z" transform="translate(-0.2 -0.95)"/><path class="cls-2" d="M10.92,27.36h0a.59.59,0,0,1-.18.46.77.77,0,0,1-.52.17.69.69,0,0,1-.53-.21.78.78,0,0,1-.21-.56v-.36a.82.82,0,0,1,.2-.56.69.69,0,0,1,.52-.21.76.76,0,0,1,.53.16.58.58,0,0,1,.19.47h-.37a.35.35,0,0,0-.08-.26.37.37,0,0,0-.27-.09.29.29,0,0,0-.25.14.53.53,0,0,0-.1.34v.37a.54.54,0,0,0,.1.35.33.33,0,0,0,.27.14.32.32,0,0,0,.25-.09.36.36,0,0,0,.08-.27Z" transform="translate(-0.2 -0.95)"/><path class="cls-2" d="M12.25,27.16h-.69v.53h.82V28H11.19V26.12h1.18v.29h-.81v.47h.69Z" transform="translate(-0.2 -0.95)"/><path class="cls-2" d="M14.13,28h-.37L13,26.73h0V28h-.37V26.12H13l.74,1.25h0V26.12h.37Z" transform="translate(-0.2 -0.95)"/><path class="cls-2" d="M15.72,26.41H15.2V28h-.38V26.41H14.3v-.29h1.42Z" transform="translate(-0.2 -0.95)"/><path class="cls-2" d="M16.3,27.23V28h-.37V26.12h.64a.74.74,0,0,1,.49.15.48.48,0,0,1,.18.4.44.44,0,0,1-.08.25.55.55,0,0,1-.22.16.48.48,0,0,1,.24.16.51.51,0,0,1,.07.28v.14a1,1,0,0,0,0,.16.32.32,0,0,0,.07.13v0H17a.2.2,0,0,1-.06-.13,1.1,1.1,0,0,1,0-.18v-.13a.29.29,0,0,0-.07-.22.31.31,0,0,0-.22-.08Zm0-.28h.26a.32.32,0,0,0,.23-.07.24.24,0,0,0,.08-.19.3.3,0,0,0-.08-.21.29.29,0,0,0-.22-.07H16.3Z" transform="translate(-0.2 -0.95)"/><path class="cls-2" d="M19.08,27.22a.76.76,0,0,1-.22.56.71.71,0,0,1-.55.22.73.73,0,0,1-.56-.22.79.79,0,0,1-.21-.56v-.34a.79.79,0,0,1,.21-.56.72.72,0,0,1,.55-.22.73.73,0,0,1,.56.22.76.76,0,0,1,.22.56Zm-.37-.34a.56.56,0,0,0-.11-.35.34.34,0,0,0-.3-.14.33.33,0,0,0-.29.14.56.56,0,0,0-.1.35v.34a.56.56,0,0,0,.1.35.34.34,0,0,0,.3.14.33.33,0,0,0,.29-.14.56.56,0,0,0,.11-.35Z" transform="translate(-0.2 -0.95)"/><path class="cls-2" d="M20,28V26.12h.64a.77.77,0,0,1,.56.22.75.75,0,0,1,.22.56v.3a.75.75,0,0,1-.22.56.76.76,0,0,1-.56.21Zm.37-1.56v1.28h.27a.37.37,0,0,0,.3-.14.56.56,0,0,0,.11-.35v-.31a.53.53,0,0,0-.11-.34.37.37,0,0,0-.3-.14Z" transform="translate(-0.2 -0.95)"/><path class="cls-2" d="M22.8,27.16h-.69v.53h.82V28H21.74V26.12h1.18v.29h-.81v.47h.69Z" transform="translate(-0.2 -0.95)"/><path class="cls-2" d="M24.89,27.16H24.2v.53H25V28H23.83V26.12H25v.29H24.2v.47h.69Z" transform="translate(-0.2 -0.95)"/><path class="cls-2" d="M26.24,27.49a.21.21,0,0,0-.07-.17.91.91,0,0,0-.26-.12,1.49,1.49,0,0,1-.49-.23.44.44,0,0,1-.16-.36.46.46,0,0,1,.18-.37.83.83,0,0,1,.48-.14.75.75,0,0,1,.49.15.47.47,0,0,1,.18.41h-.36a.29.29,0,0,0-.08-.22.36.36,0,0,0-.24-.07.28.28,0,0,0-.21.07.2.2,0,0,0-.07.16.17.17,0,0,0,.08.16,1.25,1.25,0,0,0,.28.13,1.1,1.1,0,0,1,.46.22.46.46,0,0,1,.16.37.43.43,0,0,1-.18.37.84.84,0,0,1-.49.14.85.85,0,0,1-.51-.15.47.47,0,0,1-.21-.44h.36a.27.27,0,0,0,.1.24.4.4,0,0,0,.26.08.34.34,0,0,0,.22-.06A.19.19,0,0,0,26.24,27.49Z" transform="translate(-0.2 -0.95)"/><path class="cls-2" d="M28.18,26.41h-.53V28h-.37V26.41h-.52v-.29h1.42Z" transform="translate(-0.2 -0.95)"/><path class="cls-2" d="M28.77,28H28.4V26.12h.37Z" transform="translate(-0.2 -0.95)"/><path class="cls-2" d="M30.1,27.49h0l.47-1.37h.48V28h-.37V26.71h0L30.23,28H30l-.46-1.26h0V28h-.37V26.12h.49Z" transform="translate(-0.2 -0.95)"/><path class="cls-2" d="M32.87,26.12v1.21a.59.59,0,0,1-.21.49.8.8,0,0,1-.54.18.77.77,0,0,1-.53-.18.59.59,0,0,1-.2-.49V26.12h.37v1.21a.38.38,0,0,0,.1.29.36.36,0,0,0,.26.1.41.41,0,0,0,.28-.1.42.42,0,0,0,.1-.29V26.12Z" transform="translate(-0.2 -0.95)"/><path class="cls-2" d="M33.56,27.69h.83V28h-1.2V26.12h.37Z" transform="translate(-0.2 -0.95)"/><path class="cls-2" d="M35.62,27.57H35l-.12.4h-.39l.62-1.85h.38L36.14,28h-.39Zm-.51-.29h.42l-.2-.65h0Z" transform="translate(-0.2 -0.95)"/><path class="cls-2" d="M37.69,27.36h0a.59.59,0,0,1-.18.46A.77.77,0,0,1,37,28a.72.72,0,0,1-.54-.21.78.78,0,0,1-.21-.56v-.36a.82.82,0,0,1,.2-.56A.71.71,0,0,1,37,26.1a.75.75,0,0,1,.52.16.58.58,0,0,1,.19.47h-.36a.36.36,0,0,0-.09-.26.34.34,0,0,0-.26-.09.3.3,0,0,0-.26.14.53.53,0,0,0-.1.34v.37a.61.61,0,0,0,.1.35.34.34,0,0,0,.28.14.3.3,0,0,0,.24-.09.37.37,0,0,0,.09-.27Z" transform="translate(-0.2 -0.95)"/><path class="cls-2" d="M38.35,28H38V26.12h.37Z" transform="translate(-0.2 -0.95)"/><path class="cls-2" d="M40.21,27.22a.79.79,0,0,1-.21.56.75.75,0,0,1-.56.22.73.73,0,0,1-.56-.22.79.79,0,0,1-.21-.56v-.34a.79.79,0,0,1,.21-.56.73.73,0,0,1,.56-.22.76.76,0,0,1,.56.22.79.79,0,0,1,.21.56Zm-.37-.34a.51.51,0,0,0-.11-.35.33.33,0,0,0-.29-.14.34.34,0,0,0-.3.14.56.56,0,0,0-.1.35v.34a.56.56,0,0,0,.1.35.34.34,0,0,0,.3.14.33.33,0,0,0,.29-.14.51.51,0,0,0,.11-.35Zm-.33-1.3h.42l-.35.33h-.32Z" transform="translate(-0.2 -0.95)"/><path class="cls-2" d="M42,28h-.37l-.75-1.24h0V28H40.5V26.12h.38l.74,1.25h0V26.12H42Z" transform="translate(-0.2 -0.95)"/><path class="cls-2" d="M2.43,29.53H1.9v1.56H1.53V29.53H1v-.29H2.43Z" transform="translate(-0.2 -0.95)"/><path class="cls-2" d="M3.69,30.28H3v.53h.81v.28H2.63V29.24H3.82v.29H3V30h.68Z" transform="translate(-0.2 -0.95)"/><path class="cls-2" d="M5,30.61H5l.48-1.37H6v1.85H5.63V29.83h0l-.45,1.26H4.92l-.46-1.26h0v1.26H4.08V29.24h.49Z" transform="translate(-0.2 -0.95)"/><path class="cls-2" d="M6.71,30.42v.67H6.34V29.24h.71a.72.72,0,0,1,.5.17.55.55,0,0,1,.18.43.54.54,0,0,1-.18.42.72.72,0,0,1-.5.16Zm0-.28h.34a.32.32,0,0,0,.24-.09.29.29,0,0,0,.08-.21.33.33,0,0,0-.08-.22.32.32,0,0,0-.24-.09H6.71Z" transform="translate(-0.2 -0.95)"/><path class="cls-2" d="M8.37,30.35v.74H8V29.24h.64a.72.72,0,0,1,.49.15.48.48,0,0,1,.18.4.41.41,0,0,1-.07.25A.63.63,0,0,1,9,30.2a.45.45,0,0,1,.23.16.51.51,0,0,1,.07.28v.14a.45.45,0,0,0,0,.16.19.19,0,0,0,.07.13v0H9A.2.2,0,0,1,9,31a1.09,1.09,0,0,1,0-.18v-.13a.29.29,0,0,0-.08-.22.29.29,0,0,0-.21-.08Zm0-.28h.26A.33.33,0,0,0,8.87,30a.24.24,0,0,0,.07-.19.3.3,0,0,0-.07-.21.39.39,0,0,0-.23-.07H8.37Z" transform="translate(-0.2 -0.95)"/><path class="cls-2" d="M10.62,30.69H10l-.12.4H9.51l.62-1.85h.38l.62,1.85h-.38Zm-.51-.29h.42l-.2-.65h0Z" transform="translate(-0.2 -0.95)"/><path class="cls-2" d="M12.81,31.09h-.38l-.74-1.24h0v1.24h-.37V29.24h.37l.75,1.25h0V29.24h.38Z" transform="translate(-0.2 -0.95)"/><path class="cls-2" d="M14.13,30.69h-.6l-.12.4H13l.62-1.85H14l.62,1.85h-.38Zm-.51-.29H14l-.2-.65h0Z" transform="translate(-0.2 -0.95)"/><path class="cls-2" d="M16.12,30.1h0l.4-.86h.41l-.63,1.2v.65h-.37v-.67l-.63-1.18h.41Z" transform="translate(-0.2 -0.95)"/><path class="cls-2" d="M19.27,30.34a.76.76,0,0,1-.22.56.73.73,0,0,1-.56.22.72.72,0,0,1-.55-.22.8.8,0,0,1-.22-.56V30a.8.8,0,0,1,.22-.56.71.71,0,0,1,.55-.22.73.73,0,0,1,.56.22.76.76,0,0,1,.22.56ZM18.9,30a.56.56,0,0,0-.11-.35.34.34,0,0,0-.3-.14.33.33,0,0,0-.29.14.56.56,0,0,0-.11.35v.34a.56.56,0,0,0,.11.35.33.33,0,0,0,.29.14.34.34,0,0,0,.3-.14.56.56,0,0,0,.11-.35Z" transform="translate(-0.2 -0.95)"/><path class="cls-2" d="M19.93,30.35v.74h-.37V29.24h.64a.72.72,0,0,1,.49.15.48.48,0,0,1,.18.4.41.41,0,0,1-.07.25.63.63,0,0,1-.22.16.45.45,0,0,1,.23.16.51.51,0,0,1,.07.28v.14a.45.45,0,0,0,0,.16.19.19,0,0,0,.07.13v0h-.39a.2.2,0,0,1-.06-.13,1.09,1.09,0,0,1,0-.18v-.13a.29.29,0,0,0-.08-.22.29.29,0,0,0-.21-.08Zm0-.28h.26a.33.33,0,0,0,.24-.07.24.24,0,0,0,.07-.19.3.3,0,0,0-.07-.21.39.39,0,0,0-.23-.07h-.27Z" transform="translate(-0.2 -0.95)"/><path class="cls-2" d="M21.61,31.09h-.37V29.24h.37Z" transform="translate(-0.2 -0.95)"/><path class="cls-2" d="M23,30.28h-.69v.53h.82v.28H22V29.24h1.18v.29h-.81V30H23Z" transform="translate(-0.2 -0.95)"/><path class="cls-2" d="M24.92,31.09h-.37l-.75-1.24h0v1.24h-.37V29.24h.37l.74,1.25h0V29.24h.37Z" transform="translate(-0.2 -0.95)"/><path class="cls-2" d="M26.51,29.53H26v1.56h-.37V29.53h-.52v-.29h1.42Z" transform="translate(-0.2 -0.95)"/><path class="cls-2" d="M27.54,30.69h-.6l-.12.4h-.39l.62-1.85h.38l.62,1.85h-.38ZM27,30.4h.42l-.2-.65h0Z" transform="translate(-0.2 -0.95)"/><path class="cls-2" d="M29.6,30.48h0a.59.59,0,0,1-.18.46.77.77,0,0,1-.52.17.69.69,0,0,1-.53-.21.78.78,0,0,1-.21-.56V30a.82.82,0,0,1,.2-.56.71.71,0,0,1,.53-.21.75.75,0,0,1,.52.16.58.58,0,0,1,.19.47h-.36a.36.36,0,0,0-.09-.26.34.34,0,0,0-.26-.09.29.29,0,0,0-.26.14.53.53,0,0,0-.1.34v.37a.61.61,0,0,0,.1.35.33.33,0,0,0,.27.14.3.3,0,0,0,.25-.09.36.36,0,0,0,.08-.27Z" transform="translate(-0.2 -0.95)"/><path class="cls-2" d="M30.27,31.09H29.9V29.24h.37Z" transform="translate(-0.2 -0.95)"/><path class="cls-2" d="M32.13,30.34a.79.79,0,0,1-.21.56.75.75,0,0,1-.56.22.73.73,0,0,1-.56-.22.79.79,0,0,1-.21-.56V30a.79.79,0,0,1,.21-.56.73.73,0,0,1,.56-.22.72.72,0,0,1,.55.22.76.76,0,0,1,.22.56ZM31.76,30a.51.51,0,0,0-.11-.35.33.33,0,0,0-.29-.14.34.34,0,0,0-.3.14A.56.56,0,0,0,31,30v.34a.56.56,0,0,0,.1.35.34.34,0,0,0,.3.14.33.33,0,0,0,.29-.14.51.51,0,0,0,.11-.35Zm-.33-1.3h.42L31.5,29h-.32Z" transform="translate(-0.2 -0.95)"/><path class="cls-2" d="M33.92,31.09h-.37l-.75-1.24h0v1.24h-.37V29.24h.37l.75,1.25h0V29.24h.37Z" transform="translate(-0.2 -0.95)"/><path class="cls-2" d="M35.28,30.42v.67H34.9V29.24h.71a.72.72,0,0,1,.5.17.53.53,0,0,1,.19.43.52.52,0,0,1-.19.42.72.72,0,0,1-.5.16Zm0-.28h.33a.31.31,0,0,0,.24-.09.29.29,0,0,0,.08-.21.33.33,0,0,0-.08-.22.3.3,0,0,0-.24-.09h-.33Z" transform="translate(-0.2 -0.95)"/><path class="cls-2" d="M37.53,30.61a.21.21,0,0,0-.08-.17.91.91,0,0,0-.26-.12,1.6,1.6,0,0,1-.49-.23.44.44,0,0,1-.16-.36.44.44,0,0,1,.19-.37.77.77,0,0,1,.47-.14.78.78,0,0,1,.5.15.52.52,0,0,1,.18.41h-.36a.27.27,0,0,0-.09-.22.32.32,0,0,0-.23-.07.31.31,0,0,0-.22.07.24.24,0,0,0-.07.16.19.19,0,0,0,.08.16,1.52,1.52,0,0,0,.28.13,1.14,1.14,0,0,1,.47.22.49.49,0,0,1,.16.37.44.44,0,0,1-.19.37.81.81,0,0,1-.49.14.85.85,0,0,1-.51-.15.51.51,0,0,1-.21-.44h.36a.3.3,0,0,0,.1.24.4.4,0,0,0,.26.08.37.37,0,0,0,.23-.06A.21.21,0,0,0,37.53,30.61Z" transform="translate(-0.2 -0.95)"/><path class="cls-2" d="M38.57,31.09h-.38V29.24h.38Z" transform="translate(-0.2 -0.95)"/><path class="cls-2" d="M40.32,30.48h0a.56.56,0,0,1-.18.46.82.82,0,0,1-1,0,.82.82,0,0,1-.2-.56V30a.77.77,0,0,1,.2-.56.69.69,0,0,1,.52-.21.78.78,0,0,1,.53.16.55.55,0,0,1,.18.47H40a.4.4,0,0,0-.08-.26.37.37,0,0,0-.27-.09.3.3,0,0,0-.26.14.59.59,0,0,0-.09.34v.37a.54.54,0,0,0,.1.35.31.31,0,0,0,.27.14.33.33,0,0,0,.25-.09.41.41,0,0,0,.08-.27Z" transform="translate(-0.2 -0.95)"/><path class="cls-2" d="M42.08,30.34a.79.79,0,0,1-.21.56.82.82,0,0,1-1.12,0,.79.79,0,0,1-.21-.56V30a.79.79,0,0,1,.21-.56.73.73,0,0,1,.56-.22.75.75,0,0,1,.56.22.79.79,0,0,1,.21.56ZM41.71,30a.56.56,0,0,0-.1-.35.36.36,0,0,0-.3-.14.34.34,0,0,0-.3.14.56.56,0,0,0-.1.35v.34a.56.56,0,0,0,.1.35.34.34,0,0,0,.3.14.35.35,0,0,0,.3-.14.56.56,0,0,0,.1-.35Z" transform="translate(-0.2 -0.95)"/><path class="cls-2" d="M42.75,30.81h.82v.28H42.38V29.24h.37Z" transform="translate(-0.2 -0.95)"/><path class="cls-2" d="M45.28,30.34a.79.79,0,0,1-.21.56.73.73,0,0,1-.56.22A.75.75,0,0,1,44,30.9a.79.79,0,0,1-.21-.56V30a.79.79,0,0,1,.21-.56.82.82,0,0,1,1.12,0,.79.79,0,0,1,.21.56ZM44.91,30a.56.56,0,0,0-.1-.35.35.35,0,0,0-.3-.14.31.31,0,0,0-.29.14.56.56,0,0,0-.11.35v.34a.56.56,0,0,0,.11.35.32.32,0,0,0,.29.14.34.34,0,0,0,.3-.14.56.56,0,0,0,.1-.35Zm-.32-1.3H45l-.35.33h-.32Z" transform="translate(-0.2 -0.95)"/><path class="cls-2" d="M47,30.84a.65.65,0,0,1-.25.2,1.13,1.13,0,0,1-.45.08.73.73,0,0,1-.54-.21.71.71,0,0,1-.22-.55V30a.74.74,0,0,1,.21-.55.72.72,0,0,1,.53-.21.74.74,0,0,1,.52.16.51.51,0,0,1,.17.43h-.35a.31.31,0,0,0-.08-.22.36.36,0,0,0-.52.05.5.5,0,0,0-.11.33v.39a.51.51,0,0,0,.11.34.35.35,0,0,0,.28.14.58.58,0,0,0,.21,0,.35.35,0,0,0,.12-.07v-.36h-.35v-.25H47Z" transform="translate(-0.2 -0.95)"/><path class="cls-2" d="M47.7,31.09h-.37V29.24h.37Z" transform="translate(-0.2 -0.95)"/><path class="cls-2" d="M49.46,30.48h0a.59.59,0,0,1-.18.46.82.82,0,0,1-1.05,0,.77.77,0,0,1-.2-.56V30a.77.77,0,0,1,.2-.56.67.67,0,0,1,.52-.21.8.8,0,0,1,.53.16.58.58,0,0,1,.18.47H49.1a.36.36,0,0,0-.09-.26.33.33,0,0,0-.26-.09.3.3,0,0,0-.26.14.59.59,0,0,0-.09.34v.37a.61.61,0,0,0,.09.35.34.34,0,0,0,.28.14.33.33,0,0,0,.25-.09.41.41,0,0,0,.08-.27Z" transform="translate(-0.2 -0.95)"/><path class="cls-2" d="M50.69,30.69h-.6l-.12.4h-.39l.62-1.85h.38l.62,1.85h-.39Zm-.51-.29h.42l-.21-.65h0Z" transform="translate(-0.2 -0.95)"/></svg>