<svg id="Capa_1" enable-background="new 0 0 512 512" height="512" viewBox="0 0 512 512" width="512" xmlns="http://www.w3.org/2000/svg"><g><path d="m161 90h-30c-8.284 0-15-6.716-15-15v-60c0-8.284 6.716-15 15-15h30c8.284 0 15 6.716 15 15v60c0 8.284-6.716 15-15 15z" fill="#bc8173"/><path d="m381 90h-30c-8.284 0-15-6.716-15-15v-60c0-8.284 6.716-15 15-15h30c8.284 0 15 6.716 15 15v60c0 8.284-6.716 15-15 15z" fill="#9d5e4a"/><path d="m381 470h-250c-8.284 0-15-6.716-15-15s6.716-15 15-15h250c8.284 0 15 6.716 15 15s-6.716 15-15 15z" fill="#bc8173"/><path d="m381 440h-125v30h125c8.284 0 15-6.716 15-15s-6.716-15-15-15z" fill="#9d5e4a"/><g><path d="m481 365h-450v-290c0-8.284 6.716-15 15-15h420c8.284 0 15 6.716 15 15z" fill="#f2faff"/><path d="m466 60h-210v305h225v-290c0-8.284-6.716-15-15-15z" fill="#c8eafa"/></g><path d="m121 512h-45c-4.728 0-9.178-2.229-12.01-6.014s-3.714-8.684-2.38-13.219l30-102c1.877-6.383 7.736-10.767 14.39-10.767h45c4.728 0 9.178 2.229 12.01 6.014s3.714 8.684 2.38 13.219l-30 102c-1.877 6.383-7.736 10.767-14.39 10.767z" fill="#9d5e4a"/><path d="m436 512h-45c-6.654 0-12.513-4.384-14.391-10.768l-30-102c-1.333-4.535-.452-9.434 2.38-13.219s7.283-6.013 12.011-6.013h45c6.654 0 12.513 4.384 14.391 10.768l30 102c1.333 4.535.452 9.434-2.38 13.219s-7.283 6.013-12.011 6.013z" fill="#7d4a3b"/><g><path d="m396 120h-180c-6.697 0-12.583 4.439-14.423 10.879l-30.502 106.758-12.213-20.354c-2.711-4.518-7.593-7.283-12.862-7.283h-30c-8.284 0-15 6.716-15 15s6.716 15 15 15h21.507l25.63 42.718c2.733 4.556 7.64 7.283 12.858 7.282.651 0 1.307-.042 1.964-.129 5.925-.78 10.821-5.004 12.462-10.75l36.893-129.121h168.686c8.284 0 15-6.716 15-15s-6.716-15-15-15z" fill="#5e54ac"/><path d="m361.606 184.394c-5.857-5.857-15.355-5.857-21.213 0l-29.393 29.393-29.394-29.394c-5.857-5.857-15.355-5.857-21.213 0s-5.858 15.355 0 21.213l29.394 29.394-29.394 29.394c-5.858 5.857-5.858 15.355 0 21.213 2.929 2.928 6.768 4.393 10.607 4.393s7.678-1.465 10.606-4.394l29.394-29.393 29.394 29.394c2.928 2.928 6.767 4.393 10.606 4.393s7.678-1.465 10.606-4.394c5.858-5.857 5.858-15.355 0-21.213l-29.393-29.393 29.394-29.394c5.857-5.857 5.857-15.355-.001-21.212z" fill="#453d81"/></g><path d="m115 380h-85c-16.569 0-30-13.431-30-30v-15c0-24.853 20.147-45 45-45h40c24.853 0 45 20.147 45 45v30c0 8.284-6.716 15-15 15z" fill="#a4e9ff"/><g><path d="m497 410h-482c-8.284 0-15-6.716-15-15v-45h497c8.284 0 15 6.716 15 15v30c0 8.284-6.716 15-15 15z" fill="#bc8173"/><path d="m497 350h-241v60h241c8.284 0 15-6.716 15-15v-30c0-8.284-6.716-15-15-15z" fill="#9d5e4a"/></g><g><g><path d="m396 120h-140v30h140c8.284 0 15-6.716 15-15s-6.716-15-15-15z" fill="#453d81"/></g></g></g></svg>