<svg id="Layer_1" enable-background="new 0 0 512 512" height="512" viewBox="0 0 512 512" width="512" xmlns="http://www.w3.org/2000/svg"><g><path clip-rule="evenodd" d="m368.258 396.986c.003.263.01.526.01.789 0 35.653-28.902 64.555-64.555 64.555s-64.555-28.902-64.555-64.555c0-3.607 20.537-139.197 20.537-258.16 0-44.288 35.902-80.19 80.19-80.19 42.995 0 78.085 33.839 80.096 76.337 27.435 7.821 47.523 33.073 47.523 63.018 0 8.474-1.609 16.571-4.537 24.005 20.465 11.083 34.364 32.744 34.364 57.652 0 36.186-29.335 65.521-65.521 65.521-2.584 0-5.132-.154-7.638-.445-5.689 27.074-28.09 47.996-55.914 51.473z" fill="#ffcdbe" fill-rule="evenodd"/><path d="m480.211 216.489c1.305-5.778 1.963-11.7 1.963-17.71 0-32.197-19.517-61.188-48.533-73.691-6.996-45.779-46.406-80.332-93.755-80.332-52.305 0-94.858 42.553-94.858 94.859 0 66.596-6.457 149.504-19.191 246.423-1.232 9.375-1.346 10.284-1.346 11.737 0 43.684 35.54 79.224 79.224 79.224 39.845 0 72.914-29.568 78.418-67.913 24.259-6.92 43.897-24.949 52.866-48.521 42.743-1.681 77.001-36.979 77.001-80.128 0-25.363-11.931-48.92-31.789-63.948zm-38.348 113.798c.143-2.107.215-4.219.215-6.333 0-29.354-14.009-57.408-37.474-75.045-6.479-4.871-15.674-3.563-20.539 2.912-4.868 6.476-3.564 15.672 2.912 20.539 16.132 12.126 25.763 31.413 25.763 51.594 0 17.543-6.974 36.744-21.147 47.936-.854.674-10.791 6.786-10.848 6.554-3.23-13.023-9.71-25.174-18.886-35.084 6.044-1.813 10.45-7.412 10.45-14.046 0-8.101-6.568-14.669-14.669-14.669-24.145 0-44.994 16.386-50.699 39.848-4.44 18.257 24.022 25.374 28.507 6.932.231-.95.537-1.864.877-2.758.619.999 1.353 1.947 2.233 2.804 9.144 8.898 14.587 21.135 15.139 33.849-.068.6-.113 1.206-.107 1.824l.009.63c0 27.507-22.379 49.886-49.886 49.886-27.312 0-49.569-22.065-49.882-49.304.148-1.31.608-4.812 1.093-8.497 12.9-98.181 16.034-183.416 16.034-251.286 0-36.129 32.799-64.481 68.927-64.481 35.043 0 63.789 27.392 65.444 62.361.007.142.026.28.037.421.016.588.041 1.176.041 1.762 0 11.647-3.168 22.958-8.973 32.799-6.787-10.236-16.566-18.427-28.296-23.205-7.5-3.056-16.062.548-19.118 8.052-3.056 7.503.549 16.062 8.052 19.118 10.864 4.425 18.561 14.4 20.086 26.032.754 5.752 5.042 10.355 10.558 11.95 6.22 1.798 11.078-.618 15.625-4.671 15-13.373 25.19-31.122 29.329-50.466 12.389 9.434 20.168 24.343 20.168 40.533 0 6.437-1.183 12.705-3.516 18.629-2.718 6.9.141 14.743 6.662 18.274 16.458 8.913 26.681 26.061 26.681 44.754-.003 24.601-17.561 45.173-40.802 49.852z" fill="#ffbeaa"/><g><g><path d="m256 477.209c-17.523 0-41.291-10.268-70.643-30.518-26.873-18.539-56.188-44.222-82.546-72.317-30.913-32.95-102.811-118.174-102.811-197.697 0-78.237 63.65-141.886 141.886-141.886 27.104 0 53.457 7.673 76.211 22.189 22.132 14.12 39.901 34.034 51.385 57.591.998 2.048 1.517 4.295 1.517 6.573l.001 341.065c0 3.979-1.58 7.794-4.394 10.606-2.812 2.814-6.627 4.394-10.606 4.394z" fill="#ff405c"/></g></g></g></svg>