<svg xmlns="http://www.w3.org/2000/svg" viewBox="0 0 500 500"><defs><style>.cls-1{isolation:isolate;}.cls-2{fill:#fff;}.cls-3{fill:#ecf3ff;}.cls-4{fill:#c8dbfb;}.cls-10,.cls-13,.cls-17,.cls-18,.cls-5,.cls-6,.cls-8{fill:none;stroke-linecap:round;stroke-linejoin:round;}.cls-18,.cls-5,.cls-6{stroke:#c8dbfb;}.cls-6{stroke-dasharray:3.99 3.99;}.cls-7{fill:#5193f4;}.cls-17,.cls-8{stroke:#0b43a4;}.cls-9{fill:#00ad9f;}.cls-10,.cls-13{stroke:#00ad9f;}.cls-10,.cls-14{mix-blend-mode:multiply;}.cls-11{fill:#0056ec;}.cls-12{fill:#52d2bc;}.cls-14{fill:#5275a0;opacity:0.2;}.cls-15{fill:#7ee8d4;}.cls-16{fill:#4a49ca;}.cls-17,.cls-18{stroke-dasharray:4;}.cls-19{fill:#0b43a4;}.cls-20{fill:#0c2340;}.cls-21{fill:#ef832b;}.cls-22{fill:#ffb9a3;}.cls-23{fill:#047f76;}.cls-24{fill:#009790;}.cls-25{fill:#d8742a;}</style></defs><title>445821-PF5LWD-853</title><g class="cls-1"><g id="BACKGROUND"><rect class="cls-2" width="500" height="500"/><path class="cls-3" d="M112.41,94.74c15.62,1,22.16-9.61,29.5-23.31,20.09-37.5,64.83-33.89,79.84-10.8,10.64,16.36,33.56,13,52.11,6.59,18.25-6.3,49.35-12.35,74.12-4.82C369.62,69,378.5,92.7,398.22,91.24c43-3.18,64.72,39.29,56.92,57.82-5.08,12.09-7.61,25.62-3.47,38.06,4.55,13.7,15,24.55,23.36,36.33s15.18,26.5,11,40.32c-3.57,11.83-14.24,20-20.87,30.47-20.56,32.47-.22,82.24-27.62,109.31-19.62,19.37-51.61,14.9-79.06,18.6-22.89,3.08-44.43,12.7-67.22,16.46-46.14,7.63-92.75-9.17-139.53-9.64-16.48-.17-33.27,1.67-49.23-2.4a68.53,68.53,0,0,1-46.8-42.32c-10.2-28.3-.54-61.06-12.06-88.86-9.38-22.65-32.32-41.08-30.88-65.52.9-15.21,11.29-27.94,18.44-41.44C41.83,168.37,27.76,89.07,112.41,94.74ZM248.59,58c-4.11,0-7.43,2.55-7.43,5.69s3.33,5.43,7.43,5.7c13.35.88,13.35-4.52,13.35-7.66C261.94,56.7,252.7,58,248.59,58ZM384.17,82.28a22,22,0,0,0,12.76,5,5,5,0,0,0,3.54-.8,2.9,2.9,0,0,0,.26-4.07A6.91,6.91,0,0,0,398.22,81a7.88,7.88,0,0,1-3.89-2.89,2.94,2.94,0,0,0-.88-1.11C390.86,75.53,379.47,78.4,384.17,82.28Zm22.74,5a5.82,5.82,0,0,0,3.64-.35c.76-.25,1.69-.79,1.49-1.55a1.44,1.44,0,0,0-.79-.8c-1.55-.83-3.57-1.44-5.14-.38S405.73,86.91,406.91,87.31ZM461.2,194.58a10.44,10.44,0,0,0,2.35,4.74,40.11,40.11,0,0,0,6.81,7.77,6.87,6.87,0,0,0,3.93,1.79,6.1,6.1,0,0,0,3.7-1.34,11.74,11.74,0,0,0,4.79-8.12c.5-4.41-1.55-8.69-3.93-12.44-1.47-2.33-3.19-4.64-5.66-5.88-4.14-2.09-6.88-.27-8,3.39C464.09,187.87,460.77,190.82,461.2,194.58ZM20.82,297.08c-2.18,1.92-.21,7.54.43,11.25a6.86,6.86,0,0,0,1.15,3.15c1,1.22,2.56,1.71,4.05,2.15,2.66.77,5.87,1.42,7.9-.44,1.5-1.39,1.71-3.64,1.71-5.67a51.65,51.65,0,0,0-.3-5.56,5.92,5.92,0,0,0-.69-2.56,5.72,5.72,0,0,0-2.75-2C28.52,295.82,23,295.16,20.82,297.08ZM154,437.85c-1.29.26-2.83.81-3,2.1-.15,1.07.75,2,1.61,2.63,7.12,5.3,16.69,5.64,25.6,5.77a7.73,7.73,0,0,0,3.07-.38,4,4,0,0,0,1.93-5.17,6.48,6.48,0,0,0-1.37-1.77C174.7,434.07,162.94,436.06,154,437.85Zm177.66-3.59c-8,5.87.09,11.11,10.23,7.22a144.25,144.25,0,0,1,16.29-5.57c1.81-.45,12.74-2.81,12.74-5.27,0-6.5-12.31-5-20.06-3.88A40.19,40.19,0,0,0,331.7,434.26Z"/></g><g id="OBJECTS"><ellipse class="cls-4" cx="180.81" cy="413.68" rx="38.65" ry="3.61"/><ellipse class="cls-4" cx="379.36" cy="413.68" rx="38.65" ry="3.61"/><path class="cls-5" d="M461,159.46c-.11-.67-.23-1.33-.36-2"/><path class="cls-6" d="M459.7,153.61c-6.89-23.48-28.88-21.21-48.74-21.17l-352.51.73c-33.28.07-30.06,48.1-4,48.05,15,0,20.67,28.1-5.23,28.15-15.54,0-16,19.73-5.59,23.68"/><path class="cls-5" d="M45.55,233.57a11.74,11.74,0,0,0,2,.16"/><path class="cls-7" d="M51.63,232.82a4.79,4.79,0,1,1-5.52-3.91A4.78,4.78,0,0,1,51.63,232.82Z"/><path class="cls-7" d="M465.73,161.61a4.79,4.79,0,1,1-3.86-5.57A4.8,4.8,0,0,1,465.73,161.61Z"/><path class="cls-7" d="M100.45,197.84a83.44,83.44,0,0,1-2.93,11.44,194.88,194.88,0,0,1-10,23.57c-1.93,4-9.76,13.32-14,15.09a217.27,217.27,0,0,0-.69-33.33c-1.17-10.2,2.5-17.93-1.5-27.39-.51-1.21-1-2.42-1.57-3.63-2-4.5-4-9-4.58-13.87-.8-6.15,1.11-13.16,6.43-16.36,3.83-2.3,8.82-2.18,12.91-.37a24,24,0,0,1,9.86,8.83C101.38,172.18,102.64,185.56,100.45,197.84Z"/><path class="cls-8" d="M81.85,163.87c7.83,11,8.51,23.94,9.19,37.47a72.3,72.3,0,0,1-9.26,39"/><path class="cls-9" d="M81.52,367.85C76,363,70.48,358.07,66.43,352c-3.53-5.31-5.81-11.34-8.9-16.93-2-3.61-4.34-7.09-5.5-11.06s-.88-8.65,1.94-11.67,8-3.63,12-2,7,5,9.36,8.6a41,41,0,0,1,6,15.93c.78,5.12.58,10.35,1.38,15.47A51.77,51.77,0,0,0,87.07,364c1.83,4,6.48,11,7.66,15.1C91.45,380.76,83.86,369.91,81.52,367.85Z"/><path class="cls-10" d="M62.33,317.55c5.22,2.28,7.3,8.51,8.39,14.1,1.23,6.36,1,13.25,3.88,19,5.49,10.91,12.65,23.32,18,27"/><path class="cls-11" d="M54.51,352.93c-4.55-1.8-10.63-2.54-13.55,1.39-2.45,3.29-1.18,7.95.51,11.69,1.42,3.15,3.23,6.36,6.24,8.07a17.66,17.66,0,0,0,6.81,1.81A162.74,162.74,0,0,0,74.26,377a41.39,41.39,0,0,1,23.22,7.86C89.37,369.81,69.84,359,54.51,352.93Z"/><path class="cls-8" d="M46.52,362.73c5.8.25,11.65.66,17.21,2.3s27.58,11.73,31,16"/><path class="cls-12" d="M104.19,322a38.57,38.57,0,0,0-27-17.22c-8.06-1.09-16.36.42-24.31-1.26a31,31,0,0,1-23.31-39.21c1.87-6.22,6.14-12.11,12.32-14.11a19.66,19.66,0,0,1,10.49-.11,29.28,29.28,0,0,1,8.84,3.83c6.23,3.94,11.25,10,15,16.44,3.43,5.85,11.9,15,17.65,20.89,3.38,3.46,5.83,5.83,5.83,5.83C103.7,302,101.85,316.12,104.19,322Z"/><path class="cls-13" d="M40.11,268.16c19.37,8.75,40.49,20.2,54.23,36.42"/><path class="cls-14" d="M96.19,302.4S67.33,279,61.24,253.89c6.23,3.94,11.25,10,15,16.44,3.43,5.85,11.9,15,17.65,20.89C94.6,294.36,95.35,298,96.19,302.4Z"/><path class="cls-14" d="M97.52,209.28a194.88,194.88,0,0,1-10,23.57c-1.93,4-9.76,13.32-14,15.09a217.27,217.27,0,0,0-.69-33.33c-1.17-10.2,2.5-17.93-1.5-27.39-.51-1.21-1-2.42-1.57-3.63.37.12.73.25,1.08.4,6.58,2.82,9.62,9.78,10.18,16.54.47,5.58-.54,11.17-1.29,16.72a22.09,22.09,0,0,0-.08,7.69.24.24,0,0,1,0,.08,2.88,2.88,0,0,0,5.62-.21l1.75-9.29c.52-2.78,1.09-5.69,3.37-7.63a4.81,4.81,0,0,1,3.24-1.21A4.44,4.44,0,0,1,97.52,209.28Z"/><path class="cls-15" d="M96.2,296.53c-4.56-23.81-7-27.47-5-33.44,2.55-7.61,1.12-15.26,3.53-22.91s4-15.88,2.1-23.67c-.61-2.46-1.86-5.14-4.81-5.24a4.81,4.81,0,0,0-3.25,1.2c-2.28,1.94-2.85,4.85-3.37,7.63l-1.74,9.29a2.89,2.89,0,0,1-5.63.21v-.08a21.79,21.79,0,0,1,.07-7.68c.75-5.56,1.76-11.15,1.29-16.73-.55-6.76-3.6-13.72-10.18-16.54a11.7,11.7,0,0,0-7.43-.59c-6.87,1.76-8.65,8.48-7.64,14.21.71,4,2.6,7.75,4.31,11.47,4.19,9.09,1.12,17.43,1.7,27.42C61.78,268.65,96.2,296.53,96.2,296.53Z"/><path class="cls-13" d="M65.54,195.19c3.39,16.94,6.82,34,13.4,50,1.93,4.69,2.87,10.85,14,23.6"/><path class="cls-7" d="M197.78,199.53c-3.51-4-6.75-8.09-10.16-12-2.21-2.55-4.49-5-7-7.4-1.23-1.18-2.5-2.32-3.84-3.43a107.83,107.83,0,0,0-26.21-16c-5.7-2.44-11.72-4.45-16.56-8.34s-8.32-10.26-6.71-16.25c1.17-4.32,4.84-7.68,9-9.22a24.07,24.07,0,0,1,13.23-.47c12.2,2.63,22.39,11.4,29.32,21.77l.37.56c5.08,7.75,8.63,16.37,11.72,25.15,1,2.82,1.93,5.66,2.86,8.49C195.28,186.59,199.58,195.34,197.78,199.53Z"/><path class="cls-8" d="M142,136.57c13.31,2.54,22.73,11.35,32.6,20.63A72.26,72.26,0,0,1,195,191.74"/><path class="cls-14" d="M187.62,187.51a15.75,15.75,0,0,0,.19,4.16c-3.33-.76-5.64-5.93-7.16-11.56A86.9,86.9,0,0,1,178.19,166a61.09,61.09,0,0,1,1.11-17.27c5.08,7.75,8.63,16.37,11.72,25.15q-1.59,4.73-2.72,9.56A27.79,27.79,0,0,0,187.62,187.51Z"/><path class="cls-12" d="M210.72,139.46c-1.13,5-4.14,9.3-6.8,13.68-1.4,2.3-2.71,4.67-3.93,7.07a107.88,107.88,0,0,0-8.86,24.22,19.84,19.84,0,0,0-.48,8.25c-6.57-1.5-9.18-20.15-9.63-25.69a60.54,60.54,0,0,1,5-29.36c1.79-4,4.11-7.95,7.68-10.52s8.6-3.47,12.37-1.23a10.14,10.14,0,0,1,4.44,6.14A15.23,15.23,0,0,1,210.72,139.46Z"/><path class="cls-13" d="M188.13,187.17c-4.08-10.25-1.6-31.93,4.94-45.57,2-4.1,4.78-7.95,8.72-10.25"/><path class="cls-14" d="M210.72,139.46c-1.13,5-4.14,9.3-6.8,13.68-1.4,2.3-2.71,4.67-3.93,7.07a23.78,23.78,0,0,1-3.35-9.83c-.56-5.81,1.66-12,6.39-15.45a17,17,0,0,1,7.51-2.91A15.23,15.23,0,0,1,210.72,139.46Z"/><path class="cls-9" d="M248.57,182.86a21.71,21.71,0,0,1-1.7,5.53c-2.91,6.29-9,11.7-18.17,16.09,0,0-.51-10-.62-12.62-.45-11.42-12.84-17.74-20.68-26.06-4-4.25-7-9.61-7.58-15.42s1.67-12,6.39-15.45c4-2.86,9.15-3.49,14-3.12,7.86.63,15.79,3.92,20.68,10.06.21.23.39.48.57.72,3,4.09,4.54,9.07,5.66,14C249.1,165.21,250,174.15,248.57,182.86Z"/><path class="cls-10" d="M209.58,141.05c8.58,4.44,17.17,9.8,22.17,18.06,7,11.53,5.45,26.53.07,38.88"/><path class="cls-12" d="M392.06,256.51c5.47-9,2.68-20.57,4.58-30.93a34.18,34.18,0,0,1,12.23-20.38c4-3.16,9.57-5.42,14.06-3,1,.52,2.13,1.24,3.07.66a2.44,2.44,0,0,0,.92-1.68c1.14-5.6-1.55-11.7.65-17,1.18-2.84,3.63-5,6.22-6.61a33.9,33.9,0,0,1,16.77-5.26,9.25,9.25,0,0,1,4.61.7c2.54,1.27,3.7,4.44,3.36,7.26a16.11,16.11,0,0,1-3.62,7.61c-5.74,7.5-14.15,14-15.26,23.37a6.13,6.13,0,0,0,.4,3.5c.53,1,1.51,1.76,2.06,2.77,1.76,3.25-1.65,6.93-5,8.53a28.57,28.57,0,0,1-9.71,2.69c-2.32.22-4.94.27-6.51,2-2.91,3.16.43,8.21-.18,12.46-.38,2.65-2.3,4.79-4.23,6.65a77.12,77.12,0,0,1-11.7,9.23c-3.4,2.17-7,4.09-10,6.78s-5.44,6.31-5.64,10.34"/><path class="cls-13" d="M399.27,247.76c.89-4.36,2.92-8.4,4.93-12.37,3.14-6.21,6.34-12.51,11.08-17.6,3.6-3.87,8-6.93,11.65-10.74a39.6,39.6,0,0,0,6.59-9.14,30.85,30.85,0,0,1,3-5.3c1.52-1.89,3.59-3.24,5.4-4.86a23.07,23.07,0,0,0,5.72-7.89"/><path class="cls-7" d="M470.57,262.76c-1.23,4.74-3.06,9.43-6.2,13.19a28.14,28.14,0,0,1-7.82,6.31,44,44,0,0,1-4.73,2.31A56.79,56.79,0,0,1,432.05,289c-9.88.37-20-1.81-29.52,1a29.09,29.09,0,0,0-11.65,6.75,28.34,28.34,0,0,0-5.23,6.61l1.29-8.2c2.39-8.82,4.83-17.8,9.71-25.53a67.17,67.17,0,0,1,11.59-13.38A96.68,96.68,0,0,1,431.41,240c6.88-3.34,14.52-5.69,22.12-4.76s15.05,5.72,17.42,13C472.47,252.91,471.81,258,470.57,262.76Z"/><path class="cls-8" d="M393.4,288.88a59.87,59.87,0,0,1,30.43-23.1c7.67-2.56,15.77-3.54,23.53-5.78s15.51-6,20.06-12.71"/><path class="cls-12" d="M398.18,367.65c.44-11,6.14-21.21,13.06-29.81,5.78-7.17,12.74-13.73,21.35-17,2.7-1,5.66-1.71,8.46-1s5.34,3.09,5.39,6c0,2.43-1.59,4.56-3.31,6.28-5.66,5.67-13,9.3-19.83,13.45-11.78,7.11-23,16.62-27.65,29.57"/><path class="cls-13" d="M402.54,358c7.2-16.06,25.84-30.42,38.13-32.21"/><path class="cls-9" d="M393.68,376.42c-.09-1.85,5.93-6.68,7.29-7.91a69.85,69.85,0,0,1,25.92-14.82c3.83-1.2,7.89-2.07,11.71-1.15s7.34,4.06,7.71,8.19-2.32,7.91-5.74,9.85-7.44,2.23-11.26,2c-5.9-.35-11.7-1.81-17.62-1.77S397.45,371.47,393.68,376.42Z"/><path class="cls-10" d="M399.82,370.81c12.11-6.57,30.43-10.84,43.72-9.23"/><path class="cls-14" d="M248.57,182.86a21.71,21.71,0,0,1-1.7,5.53A96.16,96.16,0,0,1,238,153.17a19.45,19.45,0,0,1,2.93-11.3c.21.23.39.48.57.72,3,4.09,4.54,9.07,5.66,14C249.1,165.21,250,174.15,248.57,182.86Z"/><path class="cls-15" d="M290.46,182.36c9-3.21,18.43-5.78,26.65-10.73a23.12,23.12,0,0,0,6.65-5.54,11.15,11.15,0,0,0,2.46-8.12c-.4-2.92-2.27-5.72-1.64-8.6.41-1.9,1.84-3.39,2.93-5a16,16,0,0,0,2-13.28c-1.41-4.76-5-8.57-7-13.11a21.89,21.89,0,0,1-1.69-11.9c-7.59.1-14.51,4.24-22,5.63-5.71,1.06-11.64.48-17.3,1.78a27.32,27.32,0,0,0-20.35,21.91A15,15,0,0,0,248,139.84a19.5,19.5,0,0,0-5.21,14.26c2.33,37.43,23.76,57,23.76,57S287,183.58,290.46,182.36Z"/><path class="cls-13" d="M270.23,182.1c-.94-9.24,2.28-18.36,6-26.87,3.61-8.29,7.77-16.42,13.35-23.54s12.67-13.23,21-16.66"/><path class="cls-13" d="M278.28,120.69a74.34,74.34,0,0,0,1.86,26.16"/><path class="cls-13" d="M281.68,143.9c9.4-6,23.86-9.69,35-9.05"/><path class="cls-13" d="M258.69,145.44c11.32,4.77,11.78,21.41,12.08,26.14"/><path class="cls-13" d="M273.86,161c8.66-6.21,21.17-8.08,30.38-5.76"/><path class="cls-13" d="M297.48,116.42a13.68,13.68,0,0,0-3,9.68"/><path class="cls-13" d="M297,123.75c4-2,9.33-2.51,15-1.08"/><path class="cls-16" d="M74.3,141.85c1.06,0,8.32-5.43,11.11-7.24a7.56,7.56,0,0,0,2.13-1.8,2.69,2.69,0,0,0,.41-2.65,3.34,3.34,0,0,0-3.4-2.09c-3.61,0-4.86,1.19-6.62,3C72.11,137.09,74.3,141.85,74.3,141.85Z"/><path class="cls-16" d="M106.82,163.52c3.16,1.42,6.53,2.84,10,2.4,1.33-.17,2.79-.78,3.23-2a3,3,0,0,0-1-3.09,7.16,7.16,0,0,0-3.11-1.4c-4.21-1-10.11-.46-14.27.72A36.34,36.34,0,0,0,106.82,163.52Z"/><path class="cls-16" d="M127.62,116.87c-1.4-.89-3-2.08-3-3.75s1.74-2.94,3.41-3a6.93,6.93,0,0,1,4.48,2c5.32,4.66,4.65,10,4.65,10S129.19,117.86,127.62,116.87Z"/><path class="cls-16" d="M131.81,102.64a6.78,6.78,0,0,1-3.23-2.31,2.17,2.17,0,0,1-.34-1.87c.37-1,1-2,3.62-1.49,8.25,1.5,10,7.15,10,7.15S134,103.58,131.81,102.64Z"/><path class="cls-16" d="M156,115.14a13.1,13.1,0,0,0,8.81-4.52,8.21,8.21,0,0,0,1.77-3.28,3.59,3.59,0,0,0-1-3.45,3.65,3.65,0,0,0-4.27,0,8.51,8.51,0,0,0-2.76,3.6C157.68,109.32,156,115.14,156,115.14Z"/><path class="cls-8" d="M96.9,235.8l-24-21.19C68.59,210.84,64.23,207,61.52,202c-5.81-10.77-2.46-24.76,5.39-34.15s19.36-14.92,30.91-19,23.58-6.86,34.59-12.2c6.91-3.34,13.86-8.32,15.75-15.76a15.73,15.73,0,0,0-14.31-19.59"/><path class="cls-8" d="M161.58,107.45c-2.19,6.73-10.71,10.82-14.61,16.64"/><path class="cls-8" d="M131,115.19c1.68,1.77,3.69,3.24,5.16,5.19,3.1,4.13,3.35,10.84-1.23,15"/><path class="cls-8" d="M87.82,152.82a45.75,45.75,0,0,0,25.28,9.43"/><path class="cls-8" d="M71.63,162.75A25,25,0,0,1,80,135.55"/><path class="cls-16" d="M330.05,122.19a3.5,3.5,0,0,1,.51-3.53,2.59,2.59,0,0,1,2.77-.62c7,3.09,6.27,14,6.27,14S332.93,131.13,330.05,122.19Z"/><path class="cls-16" d="M329.88,142.73c-4.55,8.22,11.61,7.59,17.44,2.75C347.32,145.48,333.79,135.66,329.88,142.73Z"/><path class="cls-16" d="M350.31,122.81c-1.1-1.5-1.49-3.74-.29-5.17a4,4,0,0,1,3.8-1.13,9,9,0,0,1,4.27,2.61c5.32,6.61,2.82,13.09,2.82,13.09S352.11,125.28,350.31,122.81Z"/><path class="cls-16" d="M414.5,143.16a3.6,3.6,0,0,1,.69-3.74,3.17,3.17,0,0,1,2.36-.7,7.12,7.12,0,0,1,2.42.72,7.69,7.69,0,0,1,3.72,3.7c2,4.12.65,9.21.65,9.21S415.47,146.35,414.5,143.16Z"/><path class="cls-16" d="M394.31,158.24a10.38,10.38,0,0,0-10.72-1.72,5.46,5.46,0,0,0-2.29,1.72c-1.28,1.77-.83,4.35.49,6.08a13.45,13.45,0,0,0,5.32,3.68c3.6,1.63,9.18,2,13,2.93C400.12,170.93,400.1,163.33,394.31,158.24Z"/><path class="cls-8" d="M335.08,124c2.38,7.79,9.11,13.66,16.6,16.84s15.75,4,23.87,4.54,16.34.79,24.19,2.92c7.66,2.07,15.28,6.4,18.56,13.62,4,8.79.46,19.29-5.15,27.15S400,203.2,394.55,211.18c-2.5,3.67-4.58,8-4.07,12.36.67,5.87,5.61,10.19,10.21,13.91"/><path class="cls-8" d="M353.8,121.1a46.41,46.41,0,0,1,10.73,23.22"/><path class="cls-8" d="M335.71,144.1a37.53,37.53,0,0,0,9.38,1.64,14.29,14.29,0,0,0,9.16-4"/><path class="cls-8" d="M419.76,143.65a15.88,15.88,0,0,1,4.79,10.71c.15,4-2.08,8.86-4.74,11.85"/><path class="cls-8" d="M389.6,161.82a159.73,159.73,0,0,0,17.17,14.09c2.92,2.06,8.72,4.69,11.3,4"/><path class="cls-14" d="M456.55,282.26a44,44,0,0,1-4.73,2.31A56.79,56.79,0,0,1,432.05,289c-9.88.37-20-1.81-29.52,1a29.09,29.09,0,0,0-11.65,6.75c-.33.16-.66.34-1,.53-.79-6.69,15.89-15.41,21-17.68a60.43,60.43,0,0,1,29.35-5.12c4.38.35,8.87,1.21,12.48,3.7A13.36,13.36,0,0,1,456.55,282.26Z"/><path class="cls-12" d="M440.2,278.44c4.38.35,8.87,1.21,12.48,3.7s6.16,6.94,5.32,11.25c-1,5-6.17,8.28-11.25,8.9s-10.15-.78-15.16-1.81a107.92,107.92,0,0,0-33.78-1.54,19.5,19.5,0,0,0-7.92,2.3c-.79-6.69,15.89-15.41,21-17.68A60.43,60.43,0,0,1,440.2,278.44Z"/><path class="cls-13" d="M394.23,297c8.28-7.28,29.55-12.22,44.58-10.63,4.53.48,9.1,1.83,12.59,4.77"/><path class="cls-17" d="M378.75,215.22l80.89-.16a17.19,17.19,0,0,1,17.22,17.15h0a17.19,17.19,0,0,1-17.15,17.22l-55.33.11"/><path class="cls-17" d="M134,274.61l-56.57.12a9.7,9.7,0,0,0-9.68,9.72h0a9.7,9.7,0,0,0,9.72,9.68l16.5,0"/><path class="cls-18" d="M43.72,318.42c-19.38,0-19.78,28.94,4.88,28.89L412,346.56c15.25,0,16.86-23.83-2-23.79-37.53.08-38.78-17.82-17.94-17.86"/><path class="cls-7" d="M48.26,317.61a4.79,4.79,0,1,1-5.53-3.91A4.79,4.79,0,0,1,48.26,317.61Z"/><path class="cls-19" d="M401.34,305a4.79,4.79,0,1,1-5.52-3.92A4.79,4.79,0,0,1,401.34,305Z"/><path class="cls-14" d="M406.56,388.61l-300.89.62A7.27,7.27,0,0,1,98.38,382L98,182.65a7.27,7.27,0,0,1,7.26-7.29l300.89-.62A7.27,7.27,0,0,1,413.4,182l.41,199.33A7.27,7.27,0,0,1,406.56,388.61Z"/><path class="cls-2" d="M400.67,384.8l-300.89.62a7.26,7.26,0,0,1-7.29-7.25l-.41-199.33a7.27,7.27,0,0,1,7.25-7.29l300.89-.62a7.28,7.28,0,0,1,7.29,7.26l.41,199.33A7.26,7.26,0,0,1,400.67,384.8Z"/><path class="cls-11" d="M399.73,170.94l-299.6.61a7.91,7.91,0,0,0-7.89,7.93v6.88l315.43-.65,0-6.88A7.91,7.91,0,0,0,399.73,170.94Z"/><path class="cls-4" d="M100.49,385.42l45.27-.09-.41-199.08-53.18.11.39,191.18A7.91,7.91,0,0,0,100.49,385.42Z"/><path class="cls-11" d="M400.31,172.93a5.27,5.27,0,0,1,5.27,5.26L406,377.53a5.28,5.28,0,0,1-5.26,5.28l-300.9.62a5.27,5.27,0,0,1-5.26-5.26l-.42-199.33a5.27,5.27,0,0,1,5.26-5.28l300.89-.63h0m0-2h0l-300.89.63a7.26,7.26,0,0,0-7.26,7.28l.42,199.33a7.27,7.27,0,0,0,7.26,7.26h0l300.89-.62a7.27,7.27,0,0,0,7.25-7.29l-.41-199.33a7.27,7.27,0,0,0-7.27-7.26Z"/><rect class="cls-2" x="100.45" y="364.32" width="40.46" height="5.92" rx="2.79" transform="translate(-0.76 0.25) rotate(-0.12)"/><rect class="cls-2" x="99.08" y="195.27" width="39.91" height="39.91" rx="5.11" transform="translate(-0.44 0.25) rotate(-0.12)"/><rect class="cls-4" x="153.96" y="316.5" width="110.76" height="7.73" rx="3.64" transform="translate(-0.66 0.43) rotate(-0.12)"/><rect class="cls-4" x="169.68" y="198.57" width="89.05" height="7.73" rx="3.64" transform="matrix(1, 0, 0, 1, -0.42, 0.44)"/><rect class="cls-4" x="271.69" y="281.3" width="116.31" height="7.73" rx="3.64" transform="translate(-0.59 0.68) rotate(-0.12)"/><rect class="cls-4" x="153.99" y="332.48" width="110.76" height="7.73" rx="3.64" transform="translate(-0.69 0.43) rotate(-0.12)"/><rect class="cls-4" x="154.02" y="348.46" width="110.76" height="7.73" rx="3.64" transform="translate(-0.73 0.43) rotate(-0.12)"/><rect class="cls-4" x="271.8" y="309.81" width="116.31" height="56.81" rx="6.01" transform="translate(-0.7 0.68) rotate(-0.12)"/><path class="cls-4" d="M109.54,178.8a2.55,2.55,0,1,1-2.56-2.54A2.56,2.56,0,0,1,109.54,178.8Z"/><circle class="cls-4" cx="117.78" cy="178.78" r="2.55"/><path class="cls-4" d="M131.12,178.76a2.55,2.55,0,1,1-2.55-2.55A2.55,2.55,0,0,1,131.12,178.76Z"/><circle class="cls-4" cx="158.35" cy="202.56" r="7.37" transform="translate(-58.98 339.93) rotate(-84.28)"/><rect class="cls-2" x="101.98" y="238.49" width="35.39" height="2.92" rx="1.37" transform="translate(-0.5 0.25) rotate(-0.12)"/><rect class="cls-2" x="101.99" y="244.73" width="35.39" height="2.92" rx="1.37" transform="translate(-0.51 0.25) rotate(-0.12)"/><path class="cls-4" d="M173.4,260.79l-9.24.1.07,38.68h-8a5.08,5.08,0,0,1-5.1-5.08L151,223a5.14,5.14,0,0,1,5.13-5.16l17.15,0Z"/><path class="cls-4" d="M233.29,217.66v1a5,5,0,0,1,5,5l.14,69.74a5,5,0,0,1-5,5l-76.27.16a5,5,0,0,1-5-5L152,223.84a5,5,0,0,1,5-5l76.26-.16v-1m0,0h0l-76.25.16a6,6,0,0,0-6,6l.14,69.74a6,6,0,0,0,6,6h0l76.25-.16a6,6,0,0,0,6-6l-.14-69.74a6,6,0,0,0-6-6Z"/><rect class="cls-4" x="258.66" y="200.42" width="116.31" height="63.93" rx="6.01" transform="translate(59.02 -64.12) rotate(12.74)"/><polygon class="cls-11" points="163.76 412.76 149.53 412.79 146.05 394.66 167.17 394.61 163.76 412.76"/><path class="cls-4" d="M150,394.65c0,1.48-.28,4,.7,4s.58-2.36,1.7-2.29c.72,0-.33,7.87,2.38,8.06,1.86.13,1.52-3.84,1.71-6.33a1.17,1.17,0,0,1,2.31-.24c0,1.25-.06,2.08,0,3.5.1,2.37,3.73,1.74,3.61-1.43s0-5.3,0-5.3Z"/><path class="cls-20" d="M146.58,405.6a3.86,3.86,0,0,1-.84-.09,3,3,0,0,1-2.19-1.63c-1.45-3.08,2.37-8.85,2.52-9.1l.2,1c0,.06-3.36,5-2.05,7.77a2.24,2.24,0,0,0,1.69,1.25,3.22,3.22,0,0,0,.71.08c5.13,0,13.89-9.57,14-9.68.36-.43,1,0,.8.34C161,396,152.09,405.59,146.58,405.6Z"/><path class="cls-14" d="M296.15,157.62c-20.23-.77-48.08,14.19-38.2,50.77-.22,3.09,1.64,5.3,3.61,4.69s.23-6.46.23-6.46c3.37-27.2,9.67-31.9,20.36-31.8l25.09-.06c6.2.92,17.48,5.25,19.17,27l6.24,1.15C333.14,187.21,329.33,158.89,296.15,157.62Z"/><path class="cls-21" d="M296.15,154.44c-20.23-.78-48.08,14.18-38.2,50.76l3.84-1.77c3.37-27.19,9.67-31.9,20.36-31.8l25.09,0c6.2.91,17.78,6.41,19.47,28.19l5.94,0C333.14,184,329.33,155.71,296.15,154.44Z"/><path class="cls-22" d="M292,155l-3,6.61s.36,3.72,4,3.64,4.14-1.76,4.14-1.76l.48-7.59Z"/><path class="cls-22" d="M307.45,149.53c-3.42,6.05-4.94,7.94-9.42,8.85-5.8,1.17-12.3-2.74-9.28-12.38,2.47-7.86,6.2-6.65,9.85-6.35S311.15,143,307.45,149.53Z"/><path class="cls-20" d="M293.84,144.75a2.46,2.46,0,0,0-2.79.67,3.07,3.07,0,0,0-.77,2.92,2.66,2.66,0,0,0-2.5,2.79c-.95-2.23-.44-4.56-.62-6.84s.06-4.78,1.54-6.53a7.42,7.42,0,0,1,2.22-1.71,11.5,11.5,0,0,1,10.32-.15,6.24,6.24,0,0,0,4.64.82c4.42-1.07,7,1.92,4.35,4.72a3.47,3.47,0,0,1,2.17,1.5.7.7,0,0,1,0,.67.76.76,0,0,1-.4.25,4.85,4.85,0,0,1-2.33.18c.3.26,1.94.36,2.43,1.31,1.32,2.54-3.9,1.26-4.69,1,.9.17,3.29,2.07,2.52,3.38-.15.26-3.36,2.13-6.75-1.8a6.25,6.25,0,0,0-2.93-2.07,4.7,4.7,0,0,0-2.76.43c-.64.25-2.29,1.25-2.77.65S294.89,145.27,293.84,144.75Z"/><path class="cls-22" d="M327.35,199.77c-.9,3.09-1.81,3.39-.72,3.88s2-1.23,2-1.23l5,1s-1.14-3.25-1.93-3.65S327.35,199.77,327.35,199.77Z"/><path class="cls-22" d="M261.79,203.43c.65,1.63.84,1.64,1.75,3.6,1.74,3.74-2.35,9.65-4.88,3.2a18,18,0,0,1-.71-5Z"/><path class="cls-20" d="M301,136.43c3.43.19,7.65-2.23,10.34.87.25.29.75-.09.53-.4-2.57-3.69-7.34-1-10.87-1-.36,0-.36.55,0,.57Z"/><path class="cls-20" d="M302.36,134.54c-2.34.4-4.6-.7-6.95-.33a10.31,10.31,0,0,0-5.06,2.53c-.37.32.12.95.53.68,2-1.33,4-2.48,6.48-2.29,1.83.13,3.38.67,5.2.13a.37.37,0,0,0-.2-.72Z"/><path class="cls-20" d="M289,137.74a5.46,5.46,0,0,0-2.79,4.37c-.14,1.42-.19,4.67,1.24,5.47a.35.35,0,0,0,.43-.54c-.92-.93-1-3.44-.94-4.63a5.42,5.42,0,0,1,2.3-4.27c.23-.17,0-.57-.24-.4Z"/><path class="cls-20" d="M314.39,143.37c-.84-1.47-3-2.77-4.69-1.84a.3.3,0,0,0,.15.55,7.55,7.55,0,0,1,2.12.14,3.7,3.7,0,0,1,2,1.41c.19.27.62,0,.45-.26Z"/><path class="cls-19" d="M203.12,295.92c10.6,3.89,19.81,16.06,17.7,24.91-2.39,10-9.28,14.29-9.28,14.29l-2.17-4s5.51-8.61,5-12.68c-.77-6.51-9-10.86-9-10.86Z"/><path class="cls-20" d="M177,408.64s-6.51,2.63-8.14,4.12l12.91,0v-4.1Z"/><path class="cls-20" d="M205.51,408.39a10.43,10.43,0,0,1,2.19,4.29l-8.8,0a10.22,10.22,0,0,1,1.64-4.3Z"/><path class="cls-23" d="M206.05,408.58h-6c.12-7.08-1.34-31.21-2.75-49.25-.83-10.58-1.65-19.08-2.13-20.8l3.22-.71,12.15-2.7C212.61,344.63,207.81,388.25,206.05,408.58Z"/><path class="cls-24" d="M184,338.16c-4.69,7.38-5.9,60.74-7.86,70.63l5.7.33a517.9,517.9,0,0,1,20.49-71.47Z"/><path class="cls-14" d="M204.69,337.65c-2.75,7.47-5.22,14.78-7.4,21.69-.83-10.58-1.65-19.08-2.13-20.8l3.22-.71Z"/><path class="cls-24" d="M184,338.16c-4.69,7.38-5.9,60.74-7.86,70.63l5.7.33a517.9,517.9,0,0,1,20.49-71.47Z"/><path class="cls-22" d="M187.54,278.59s-3.65,13.91,5.47,13.89l-.54,3.55,6.92.76-1.49-5s1.36-8.75,1.46-10.32C199.53,278.57,191.27,273.37,187.54,278.59Z"/><rect class="cls-20" x="162.33" y="263.01" width="2.69" height="11.35" transform="translate(-0.53 0.32) rotate(-0.11)"/><rect class="cls-11" x="153.99" y="258.69" width="19.33" height="4.31" rx="1.95" transform="translate(-0.52 0.32) rotate(-0.11)"/><path class="cls-22" d="M161.59,277.32c-.07-2.58-2.19-1.9-1-6.1.72-2.6,6.08.41,5.41,2.22s-1.43,4.64-1.43,4.64Z"/><path class="cls-11" d="M193.07,295.21c-13.63.91-14.52,5.5-20.62,4.78-9-1.06-7.45-17.83-6.34-23.84h-5.39s-9.72,38.19,21,31.13c-1.18,6.69,6.46,17.62-.94,30.88,11.65,3.16,22.52,3.94,31.84-.07-1.63-2.19,3.34-24.38-6.4-40.36C204.3,294.62,194.07,295.15,193.07,295.21Z"/><path class="cls-11" d="M193.07,295.21c-13.63.91-14.52,5.5-20.62,4.78-9-1.06-7.45-17.83-6.34-23.84h-5.39s-9.72,38.19,21,31.13c-1.18,6.69,6.46,17.62-.94,30.88,11.65,3.16,22.52,3.94,31.84-.07-1.63-2.19,3.34-24.38-6.4-40.36C204.3,294.62,194.07,295.15,193.07,295.21Z"/><path class="cls-21" d="M191.2,281.26c.89.22,1.92.39,2.4,1.15a2.87,2.87,0,0,1,.25,1.67,1.41,1.41,0,0,1,1.47-1,1.36,1.36,0,0,1,1.18,1.26,2.28,2.28,0,0,1-.19.85,10.49,10.49,0,0,1-1,1.93c1.12.41,2.05,3.66,2.61,4.68,1.87-.47,6-2.08,6.4-8.71.17-3.09-.78-6.79-4.13-8.85-2.36-1.45-6.29-1.47-9-.78-2.2.56-5.7,2.76-4.07,5.32A7,7,0,0,0,191.2,281.26Z"/><path class="cls-21" d="M202.87,277a3.28,3.28,0,0,1,3.64.86,7.11,7.11,0,0,1,.74,2.9,2.19,2.19,0,0,0,.63,1.29,2.65,2.65,0,0,0,1.68.52,40.26,40.26,0,0,1,4.4.14,4.05,4.05,0,0,1,3.34,2.42c.22.74.1,1.56.37,2.3.41,1.1,1.59,1.72,2.61,2.36a17,17,0,0,1,5.35,5.33,9.59,9.59,0,0,1,1.6,4.42c.1,1.57,1.24,3.65.93,5.2s-2,3.92-5.21,5c-5.6,1.8-7.37,2.58-12.74-.61-.65-.38-1.91-1.69-2.5-2.16a2.86,2.86,0,0,1-.91-1.45,6.09,6.09,0,0,1,.87-4.61c.81-1.4,1.89-2.64,2.71-4a5.13,5.13,0,0,0,.85-2.73,1.48,1.48,0,0,0-.37-1,1.61,1.61,0,0,0-.87-.39c-1.18-.23-2.47,0-3.54-.52a2.51,2.51,0,0,1-1.3-2.85c.21-.72.76-1.33.92-2.06a2.82,2.82,0,0,0-1.36-2.76,7.82,7.82,0,0,0-3.16-1A3.59,3.59,0,0,1,200,283a2.07,2.07,0,0,1-.79-1.73C199.22,279.23,200.91,277.69,202.87,277Z"/><path class="cls-21" d="M201.87,282.62c6.74,1.46-1.77,7.85,1.79,10.91,1,.87,2.2.6,3.4.76,4.57.63,2.07,3.74,1.76,6.18,0,.37.56.44.64.09.39-1.69,1.94-3.74,1.14-5.53-.7-1.58-2.44-1.4-3.87-1.44-1.79,0-3.76,0-3.09-3.55a13.07,13.07,0,0,1,1.09-2.34,4.41,4.41,0,0,0,.4-2.65,3.63,3.63,0,0,0-3.17-2.77c-.22,0-.32.29-.09.34Z"/><path class="cls-21" d="M188,274.37c5.2-2.64,10.38-2.11,14.78,1.76a.31.31,0,0,0,.43-.44,11.51,11.51,0,0,0-15.35-1.56.14.14,0,0,0,.14.24Z"/><polygon class="cls-22" points="362.63 290.68 360.38 295.21 365.89 297.46 366.48 292.25 362.63 290.68"/><path class="cls-22" d="M366,275.93c-12.49,5.44-7.37,18.62.23,17.07,3.7-.75,5.57-12.67,5.57-12.67Z"/><path class="cls-16" d="M370.11,274.05a6.59,6.59,0,0,0-1.48-2.12,1.89,1.89,0,0,0-2.38-.12c-.84.78-.35,2.24.5,3-.73.09-1.6-.42-2.14.09s-.27,1,0,1.56a7,7,0,0,0,2.55,2.94c-.63.36-1.36,1-1,1.67.1.18.28.3.38.47.24.4,0,.91-.23,1.32-.4.65-.82,1.28-1.28,1.89a1.11,1.11,0,0,1,1.79.31,1.9,1.9,0,0,1-.44,2,2,2,0,0,1-1,.64c-.34.08-1.86,4.76-.68,5.68,1.46,1.13,6.43.15,7.15-1.13a3.15,3.15,0,0,0,2.81,1.16,1.73,1.73,0,0,0,1.27-2.38,2.92,2.92,0,0,0,3.52-4.23c.61-.19.74-1,.58-1.64a3.78,3.78,0,0,0-2.58-2.65,1.28,1.28,0,0,0,1.16-1.26,2.63,2.63,0,0,0-.7-1.72,5.83,5.83,0,0,0-4.29-2.05C371.85,277.28,370.88,275.49,370.11,274.05Z"/><path class="cls-20" d="M358.4,407.77s-7.31,3.51-8.29,4.61c0,0,14.38.64,15.51,0s-2.3-4.58-2.3-4.58Z"/><path class="cls-20" d="M385.59,403.8s-6.42,4.95-7.15,6.22c0,0,15.16-2.25,15.16-3.24s-3.2-4-3.2-4Z"/><path class="cls-25" d="M365.47,340c-.27,1.49-10.28,41,18.35,64.68l8.3-1.91s-9.65-9-14.2-25.34C373.61,362,377,360.52,379.61,352c2.86-9.39.73-16.21.73-16.21Z"/><path class="cls-21" d="M351.78,339.89c-4.53,10.85-12.33,47.82,4.66,68.63l8.48,0s-6.68-7.32-7.43-24.31,3.57-24.44,6.62-30.05S370,339,370,339Z"/><path class="cls-19" d="M345.8,272.64c-2.25,7.94-3,22.62,8.29,28.53l7.56-1.84S348,292.19,351,274.15Z"/><path class="cls-11" d="M325,268.57l5.86-.72s-.7,24.62,27.74,26.7c21.7,1.58,23.41,42.31,23.41,42.31-7,4.72-18.75,6.14-33.8,5.06,0,0,1-29.06-1.42-37C346.78,304.91,323.15,297.47,325,268.57Z"/><path class="cls-22" d="M317.82,264.1c-1,1.15,3.15,2.61,7.17,4.47l5.15-.63a19.36,19.36,0,0,0,0-2.1c-.06-1.07-.6-1.68-1.21-.76s-3.21,1.23-4.44.39S318.81,263,317.82,264.1Z"/><path class="cls-22" d="M345.8,272.64c-1.89-1.85-1.38-1.74-1.38-1.74l5.75,1.3s1.26-2.81,2.33-2.89-.81,1.94-.37,2.68-1.18,2.16-1.18,2.16Z"/><path class="cls-16" d="M373.34,276.77A8.06,8.06,0,0,1,376.7,278a2.54,2.54,0,0,1,.7,3.28c-.32.52.45.93.81.47a3.14,3.14,0,0,0-.25-3.87,5.32,5.32,0,0,0-4.55-1.63c-.29,0-.39.45-.07.53Z"/><path class="cls-16" d="M378.54,287.44a1.83,1.83,0,0,1,1.1,2.16c-.31.89-1.21,1.42-1.94,1.94a.34.34,0,0,0,.34.58,3.9,3.9,0,0,0,2.39-2.69,2.56,2.56,0,0,0-1.58-2.53.31.31,0,0,0-.31.54Z"/><path class="cls-16" d="M365.4,293.4a7,7,0,0,0,8.59-.94c.27-.29-.09-.83-.44-.57a7.65,7.65,0,0,1-7.93,1.13c-.25-.1-.46.23-.22.38Z"/><path class="cls-16" d="M378.88,278.51c1.53,1.44,0,3.42-1,4.67a.28.28,0,0,0,.39.39,4.79,4.79,0,0,0,1.85-3,2.26,2.26,0,0,0-1.13-2.28.12.12,0,0,0-.14.18Z"/><polygon class="cls-19" points="209.73 95.82 207.38 90.09 230.01 81.5 209.73 95.82"/><polygon class="cls-7" points="210.87 92.29 230.01 81.5 216.69 95.04 210.87 92.29"/><polygon class="cls-7" points="202.2 87.76 230.01 81.5 207.38 90.09 202.2 87.76"/><polygon class="cls-11" points="210.87 92.29 209.73 95.82 213.18 93.38 210.87 92.29"/><path class="cls-18" d="M207.07,95.06c-5.91-1-13.93,5-10.48,11.2,1.17,2.11,7.23,1.19,6.78-1.15-.21-1.12-1.59-1.6-2.72-1.47-6.61.76-6.87,6.3-6.58,7.71,1.52,7.28,12.67,4.81,16.42,3.79"/></g></g></svg>